<svg width="253" height="84" viewBox="0 0 253 84" fill="none" xmlns="http://www.w3.org/2000/svg">
<path d="M115.18 19.7262C115.18 14.7399 116.277 10.9076 118.471 8.22922C120.665 5.52237 123.799 4.16895 127.874 4.16895C130.011 4.16895 131.877 4.53936 133.473 5.28018C135.068 6.021 136.393 7.07525 137.448 8.44292C138.502 9.81059 139.285 11.4489 139.798 13.358C140.311 15.267 140.568 17.3898 140.568 19.7262C140.568 24.7125 139.456 28.5591 137.234 31.2659C135.04 33.9443 131.92 35.2835 127.874 35.2835C125.708 35.2835 123.828 34.9131 122.232 34.1722C120.637 33.4314 119.312 32.3772 118.257 31.0095C117.232 29.6418 116.462 28.0035 115.949 26.0944C115.437 24.1854 115.18 22.0626 115.18 19.7262ZM121.335 19.7262C121.335 21.2363 121.463 22.6325 121.719 23.9147C121.976 25.1684 122.36 26.2511 122.873 27.1629C123.415 28.0747 124.099 28.787 124.925 29.2999C125.751 29.8128 126.734 30.0692 127.874 30.0692C129.954 30.0692 131.564 29.2572 132.703 27.6331C133.843 26.0089 134.413 23.3733 134.413 19.7262C134.413 18.2731 134.285 16.9196 134.028 15.6659C133.8 14.4122 133.43 13.3152 132.917 12.375C132.404 11.4347 131.735 10.7081 130.908 10.1952C130.082 9.65388 129.071 9.38319 127.874 9.38319C125.794 9.38319 124.184 10.2237 123.044 11.9048C121.905 13.5574 121.335 16.1646 121.335 19.7262Z" fill="#FF8A00"/>
<path d="M171.817 22.1624H160.876V34.6851H155.02V4.7673H160.876V16.9481H171.817V4.7673H177.672V34.6851H171.817V22.1624Z" fill="#FF8A00"/>
<path d="M197.605 28.0605H188.416L186.151 34.6851H180.295L191.066 4.5536H195.382L206.153 34.6851H199.998L197.605 28.0605ZM189.912 23.3591H196.323L194.1 16.6917L193.203 11.9903H192.989L192.091 16.7344L189.912 23.3591Z" fill="#FF8A00"/>
<path d="M227.671 34.6851H208.737V4.7673H214.592V29.4709H227.671V34.6851Z" fill="#FF8A00"/>
<path d="M249.625 34.6851H230.691V4.7673H236.547V29.4709H249.625V34.6851Z" fill="#FF8A00"/>
<path d="M2.04156 51.7811H4.53691V50.7685C4.53691 48.4781 5.0191 46.8266 5.98348 45.814C6.94787 44.7772 8.34622 44.2589 10.1786 44.2589C12.1073 44.2589 13.7106 44.4879 14.9884 44.946L14.0843 48.7071C13.5298 48.5142 13.0355 48.3937 12.6016 48.3455C12.1917 48.2731 11.7577 48.237 11.2996 48.237C10.8175 48.237 10.4317 48.3093 10.1424 48.454C9.87718 48.5986 9.67225 48.8277 9.52759 49.1411C9.40704 49.4304 9.32266 49.8041 9.27444 50.2622C9.25033 50.6961 9.23828 51.2024 9.23828 51.7811H13.2164V55.7592H9.23828V69.8633H4.53691V55.7592H2.04156V51.7811Z" fill="#FF8A00"/>
<path d="M14.2798 60.8222C14.2798 57.7603 15.0272 55.4096 16.522 53.7701C18.0168 52.1066 20.1143 51.2748 22.8146 51.2748C24.2612 51.2748 25.5149 51.5038 26.5757 51.9619C27.6365 52.42 28.5165 53.0709 29.2157 53.9148C29.9149 54.7345 30.4332 55.7351 30.7708 56.9164C31.1324 58.0978 31.3132 59.3997 31.3132 60.8222C31.3132 63.8841 30.5658 66.2468 29.0711 67.9104C27.6004 69.5499 25.5149 70.3696 22.8146 70.3696C21.368 70.3696 20.1143 70.1405 19.0535 69.6825C17.9927 69.2244 17.1006 68.5855 16.3774 67.7657C15.6782 66.9219 15.1478 65.9093 14.7861 64.7279C14.4486 63.5466 14.2798 62.2446 14.2798 60.8222ZM19.1258 60.8222C19.1258 61.6178 19.1982 62.3531 19.3428 63.0282C19.4875 63.7033 19.7045 64.294 19.9938 64.8003C20.2831 65.3066 20.6568 65.7044 21.1149 65.9937C21.5971 66.2589 22.1637 66.3915 22.8146 66.3915C24.0442 66.3915 24.9604 65.9455 25.5631 65.0534C26.1658 64.1614 26.4672 62.7509 26.4672 60.8222C26.4672 59.1586 26.19 57.8205 25.6354 56.8079C25.0809 55.7712 24.1406 55.2529 22.8146 55.2529C21.6574 55.2529 20.7532 55.6868 20.1023 56.5548C19.4513 57.4227 19.1258 58.8452 19.1258 60.8222Z" fill="#FF8A00"/>
<path d="M32.6914 51.7811H35.1868V48.3816L39.8882 47.0435V51.7811H44.3002V55.7592H39.8882V62.7027C39.8882 63.9564 40.0087 64.8605 40.2498 65.4151C40.515 65.9455 40.9972 66.2107 41.6964 66.2107C42.1786 66.2107 42.5884 66.1625 42.926 66.066C43.2876 65.9696 43.6854 65.8249 44.1194 65.632L44.9512 69.2485C44.3002 69.5619 43.5408 69.8271 42.6728 70.0441C41.8049 70.2611 40.9249 70.3696 40.0328 70.3696C38.3693 70.3696 37.1397 69.9477 36.344 69.1038C35.5725 68.2359 35.1868 66.8255 35.1868 64.8726V55.7592H32.6914V51.7811Z" fill="#FF8A00"/>
<path d="M46.1356 60.8222C46.1356 57.7603 46.8829 55.4096 48.3777 53.7701C49.8725 52.1066 51.9701 51.2748 54.6703 51.2748C56.1169 51.2748 57.3706 51.5038 58.4314 51.9619C59.4923 52.42 60.3723 53.0709 61.0714 53.9148C61.7706 54.7345 62.289 55.7351 62.6265 56.9164C62.9882 58.0978 63.169 59.3997 63.169 60.8222C63.169 63.8841 62.4216 66.2468 60.9268 67.9104C59.4561 69.5499 57.3706 70.3696 54.6703 70.3696C53.2238 70.3696 51.9701 70.1405 50.9093 69.6825C49.8484 69.2244 48.9564 68.5855 48.2331 67.7657C47.5339 66.9219 47.0035 65.9093 46.6419 64.7279C46.3043 63.5466 46.1356 62.2446 46.1356 60.8222ZM50.9816 60.8222C50.9816 61.6178 51.0539 62.3531 51.1986 63.0282C51.3432 63.7033 51.5602 64.294 51.8495 64.8003C52.1388 65.3066 52.5125 65.7044 52.9706 65.9937C53.4528 66.2589 54.0194 66.3915 54.6703 66.3915C55.8999 66.3915 56.8161 65.9455 57.4188 65.0534C58.0216 64.1614 58.3229 62.7509 58.3229 60.8222C58.3229 59.1586 58.0457 57.8205 57.4912 56.8079C56.9366 55.7712 55.9964 55.2529 54.6703 55.2529C53.5131 55.2529 52.609 55.6868 51.958 56.5548C51.3071 57.4227 50.9816 58.8452 50.9816 60.8222Z" fill="#FF8A00"/>
<path d="M81.1249 61.2561L81.7397 64.0408H81.9205L82.4268 61.1838L85.5008 51.7811H90.5638L83.0054 70.0441H80.1484L72.3008 51.7811H77.7616L81.1249 61.2561Z" fill="#FF8A00"/>
<path d="M92.537 51.7811H97.2384V69.8633H92.537V51.7811ZM91.8499 46.6819C91.8499 45.9827 92.103 45.392 92.6093 44.9098C93.1397 44.4035 93.863 44.1504 94.7792 44.1504C95.6954 44.1504 96.4307 44.4035 96.9852 44.9098C97.5638 45.392 97.8532 45.9827 97.8532 46.6819C97.8532 47.3811 97.5638 47.9718 96.9852 48.454C96.4307 48.912 95.6954 49.1411 94.7792 49.1411C93.863 49.1411 93.1397 48.912 92.6093 48.454C92.103 47.9718 91.8499 47.3811 91.8499 46.6819Z" fill="#FF8A00"/>
<path d="M117.185 63.4983C117.185 64.5109 117.197 65.5235 117.221 66.5361C117.245 67.5488 117.354 68.6698 117.547 69.8994H114.183L113.532 67.5488H113.388C112.906 68.3926 112.206 69.0797 111.29 69.6101C110.398 70.1164 109.337 70.3696 108.108 70.3696C105.841 70.3696 104.081 69.6222 102.828 68.1274C101.574 66.6326 100.947 64.294 100.947 61.1115C100.947 58.0255 101.646 55.6266 103.045 53.9148C104.443 52.203 106.492 51.3471 109.193 51.3471C109.94 51.3471 110.555 51.3953 111.037 51.4918C111.519 51.5641 112.001 51.6967 112.484 51.8896V44.5482H117.185V63.4983ZM109.193 66.3915C110.109 66.3915 110.832 66.1745 111.363 65.7405C111.893 65.2825 112.267 64.6315 112.484 63.7877V56.1208C112.146 55.8556 111.772 55.6627 111.363 55.5422C110.953 55.3975 110.422 55.3252 109.771 55.3252C108.445 55.3252 107.445 55.7712 106.77 56.6633C106.119 57.5553 105.793 59.0863 105.793 61.2561C105.793 62.7992 106.058 64.0408 106.589 64.9811C107.143 65.9214 108.011 66.3915 109.193 66.3915Z" fill="#FF8A00"/>
<path d="M135.776 68.3082C135.052 68.8868 134.064 69.3811 132.81 69.7909C131.581 70.1767 130.267 70.3696 128.868 70.3696C125.951 70.3696 123.817 69.5257 122.467 67.8381C121.117 66.1263 120.442 63.7877 120.442 60.8222C120.442 57.6397 121.202 55.2529 122.72 53.6616C124.239 52.0704 126.373 51.2748 129.122 51.2748C130.038 51.2748 130.93 51.3953 131.798 51.6364C132.666 51.8775 133.437 52.2753 134.112 52.8298C134.787 53.3844 135.33 54.1318 135.74 55.072C136.149 56.0123 136.354 57.1816 136.354 58.58C136.354 59.0863 136.318 59.6287 136.246 60.2074C136.198 60.786 136.113 61.3888 135.993 62.0156H125.143C125.216 63.5345 125.602 64.6797 126.301 65.4512C127.024 66.2227 128.181 66.6085 129.772 66.6085C130.761 66.6085 131.641 66.4638 132.412 66.1745C133.208 65.8611 133.811 65.5477 134.221 65.2342L135.776 68.3082ZM129.049 55.0359C127.82 55.0359 126.903 55.4096 126.301 56.157C125.722 56.8803 125.372 57.8567 125.252 59.0863H131.979C132.075 57.7844 131.87 56.7838 131.364 56.0846C130.882 55.3855 130.11 55.0359 129.049 55.0359Z" fill="#FF8A00"/>
<path d="M138.63 60.8222C138.63 57.7603 139.378 55.4096 140.872 53.7701C142.367 52.1066 144.465 51.2748 147.165 51.2748C148.612 51.2748 149.865 51.5038 150.926 51.9619C151.987 52.42 152.867 53.0709 153.566 53.9148C154.265 54.7345 154.784 55.7351 155.121 56.9164C155.483 58.0978 155.664 59.3997 155.664 60.8222C155.664 63.8841 154.916 66.2468 153.421 67.9104C151.951 69.5499 149.865 70.3696 147.165 70.3696C145.718 70.3696 144.465 70.1405 143.404 69.6825C142.343 69.2244 141.451 68.5855 140.728 67.7657C140.029 66.9219 139.498 65.9093 139.137 64.7279C138.799 63.5466 138.63 62.2446 138.63 60.8222ZM143.476 60.8222C143.476 61.6178 143.549 62.3531 143.693 63.0282C143.838 63.7033 144.055 64.294 144.344 64.8003C144.633 65.3066 145.007 65.7044 145.465 65.9937C145.947 66.2589 146.514 66.3915 147.165 66.3915C148.395 66.3915 149.311 65.9455 149.913 65.0534C150.516 64.1614 150.818 62.7509 150.818 60.8222C150.818 59.1586 150.54 57.8205 149.986 56.8079C149.431 55.7712 148.491 55.2529 147.165 55.2529C146.008 55.2529 145.104 55.6868 144.453 56.5548C143.802 57.4227 143.476 58.8452 143.476 60.8222Z" fill="#FF8A00"/>
<path d="M182.535 68.3082C181.812 68.8868 180.823 69.3811 179.57 69.7909C178.34 70.1767 177.026 70.3696 175.628 70.3696C172.711 70.3696 170.577 69.5257 169.227 67.8381C167.877 66.1263 167.201 63.7877 167.201 60.8222C167.201 57.6397 167.961 55.2529 169.48 53.6616C170.999 52.0704 173.132 51.2748 175.881 51.2748C176.797 51.2748 177.689 51.3953 178.557 51.6364C179.425 51.8775 180.197 52.2753 180.872 52.8298C181.547 53.3844 182.089 54.1318 182.499 55.072C182.909 56.0123 183.114 57.1816 183.114 58.58C183.114 59.0863 183.078 59.6287 183.005 60.2074C182.957 60.786 182.873 61.3888 182.752 62.0156H171.903C171.975 63.5345 172.361 64.6797 173.06 65.4512C173.783 66.2227 174.941 66.6085 176.532 66.6085C177.52 66.6085 178.4 66.4638 179.172 66.1745C179.968 65.8611 180.57 65.5477 180.98 65.2342L182.535 68.3082ZM175.809 55.0359C174.579 55.0359 173.663 55.4096 173.06 56.157C172.481 56.8803 172.132 57.8567 172.011 59.0863H178.738C178.834 57.7844 178.629 56.7838 178.123 56.0846C177.641 55.3855 176.869 55.0359 175.809 55.0359Z" fill="#FF8A00"/>
<path d="M192.196 61.2561L192.811 64.0408H192.992L193.498 61.1838L196.572 51.7811H201.635L194.077 70.0441H191.22L183.372 51.7811H188.833L192.196 61.2561Z" fill="#FF8A00"/>
<path d="M217.393 68.3082C216.67 68.8868 215.681 69.3811 214.427 69.7909C213.198 70.1767 211.884 70.3696 210.485 70.3696C207.568 70.3696 205.434 69.5257 204.084 67.8381C202.734 66.1263 202.059 63.7877 202.059 60.8222C202.059 57.6397 202.819 55.2529 204.337 53.6616C205.856 52.0704 207.99 51.2748 210.739 51.2748C211.655 51.2748 212.547 51.3953 213.415 51.6364C214.283 51.8775 215.054 52.2753 215.729 52.8298C216.404 53.3844 216.947 54.1318 217.357 55.072C217.767 56.0123 217.971 57.1816 217.971 58.58C217.971 59.0863 217.935 59.6287 217.863 60.2074C217.815 60.786 217.73 61.3888 217.61 62.0156H206.761C206.833 63.5345 207.219 64.6797 207.918 65.4512C208.641 66.2227 209.798 66.6085 211.39 66.6085C212.378 66.6085 213.258 66.4638 214.03 66.1745C214.825 65.8611 215.428 65.5477 215.838 65.2342L217.393 68.3082ZM210.666 55.0359C209.437 55.0359 208.521 55.4096 207.918 56.157C207.339 56.8803 206.99 57.8567 206.869 59.0863H213.596C213.692 57.7844 213.487 56.7838 212.981 56.0846C212.499 55.3855 211.727 55.0359 210.666 55.0359Z" fill="#FF8A00"/>
<path d="M232.358 69.8633V59.5926C232.358 58.1219 232.141 57.0611 231.707 56.4101C231.297 55.7592 230.586 55.4337 229.573 55.4337C228.681 55.4337 227.922 55.6989 227.295 56.2293C226.692 56.7356 226.258 57.3745 225.993 58.146V69.8633H221.292V51.7811H225.017L225.559 54.1679H225.704C226.258 53.3964 226.994 52.7214 227.91 52.1427C228.826 51.5641 230.007 51.2748 231.454 51.2748C232.346 51.2748 233.142 51.3953 233.841 51.6364C234.54 51.8775 235.131 52.2753 235.613 52.8298C236.095 53.3844 236.457 54.1438 236.698 55.1082C236.939 56.0485 237.059 57.2178 237.059 58.6161V69.8633H232.358Z" fill="#FF8A00"/>
<path d="M239.118 51.7811H241.613V48.3816L246.315 47.0435V51.7811H250.727V55.7592H246.315V62.7027C246.315 63.9564 246.435 64.8605 246.676 65.4151C246.942 65.9455 247.424 66.2107 248.123 66.2107C248.605 66.2107 249.015 66.1625 249.353 66.066C249.714 65.9696 250.112 65.8249 250.546 65.632L251.378 69.2485C250.727 69.5619 249.967 69.8271 249.099 70.0441C248.231 70.2611 247.351 70.3696 246.459 70.3696C244.796 70.3696 243.566 69.9477 242.771 69.1038C241.999 68.2359 241.613 66.8255 241.613 64.8726V55.7592H239.118V51.7811Z" fill="#FF8A00"/>
</svg>
