<svg width="120" height="25" viewBox="0 0 120 25" fill="none" xmlns="http://www.w3.org/2000/svg">
<g clip-path="url(#clip0_1050_6097)">
<path d="M26.5982 -0.258789C15.4887 -0.258789 5.6724 8.27171 -0.160156 21.6481H5.89358C7.72664 16.7033 10.7461 12.1133 13.9162 8.86141C15.7721 8.73063 17.5517 9.0463 19.7101 9.65747C16.0949 12.6618 12.9211 17.1245 10.9606 22.0947H16.4263C17.8168 17.511 20.3039 13.5703 23.1642 10.8035C24.1118 11.1538 24.8431 11.8646 25.8961 12.287C25.491 11.6605 24.8814 10.8996 24.0362 10.1314C25.4181 8.96083 26.9217 7.95933 28.5339 7.12109C30.0444 8.45091 31.4946 9.88419 32.8797 11.3938C31.8454 9.78587 30.6972 8.21539 29.4448 6.67445C31.3514 5.77384 33.3929 5.07903 35.5366 4.577C33.0375 4.44989 30.617 4.73108 28.3253 5.3538C27.492 4.39358 26.6168 3.44913 25.6873 2.51843C26.664 2.36142 27.66 2.26604 28.6668 2.26604C34.954 2.26604 40.7108 5.2276 45.1772 10.5392L45.234 10.2868C41.1013 2.75945 33.8956 -0.258789 26.5982 -0.258789ZM23.1445 3.10099C24.4282 3.89466 25.6866 4.7872 26.902 5.76173C25.0368 6.40207 23.2656 7.28415 21.6073 8.38359C20.1971 7.61156 18.435 7.01067 16.2745 6.73278C18.3988 5.09279 20.707 3.84605 23.1445 3.10099Z" fill="#324E96"/>
<path d="M21.9491 21.9642L25.8868 12.1438H27.3483L31.5446 21.9642H29.999L28.8029 18.99H24.5158L23.3898 21.9642H21.9491ZM24.9076 17.9314H28.3835L27.3135 15.2118C26.9871 14.3856 26.7446 13.7068 26.586 13.1754C26.4553 13.8049 26.2712 14.4302 26.0336 15.0509L24.9076 17.9314ZM32.4888 13.5305V12.1437H33.7476V13.5305H32.4888ZM32.4888 21.9642V14.8501H33.7476V21.9642H32.4888ZM36.0069 21.9642V14.8501H37.1398V15.9286C37.4289 15.424 37.696 15.0913 37.9406 14.9306C38.1855 14.7699 38.4547 14.6896 38.7485 14.6896C39.1727 14.6896 39.604 14.8191 40.0424 15.0781L39.6088 16.1968C39.3011 16.0227 38.9933 15.9354 38.6857 15.9354C38.4106 15.9354 38.1634 16.0148 37.9442 16.1733C37.725 16.332 37.5689 16.5517 37.4757 16.8333C37.3359 17.2619 37.2658 17.7309 37.2658 18.2399V21.9645H36.0069V21.9642ZM41.4931 21.9642V12.1438H45.3397C46.123 12.1438 46.7514 12.2433 47.2248 12.4419C47.698 12.6407 48.0686 12.9467 48.3368 13.3598C48.6047 13.7728 48.7388 14.2048 48.7388 14.6558C48.7388 15.0757 48.62 15.4708 48.3821 15.8415C48.1444 16.2122 47.7854 16.5114 47.3051 16.7392C47.9252 16.9132 48.4018 17.2102 48.7352 17.6301C49.0686 18.0499 49.2353 18.5455 49.2353 19.1171C49.2353 19.5771 49.134 20.0047 48.9311 20.3999C48.7282 20.795 48.4776 21.0999 48.1794 21.3141C47.881 21.5285 47.5067 21.6903 47.0568 21.7998C46.6068 21.9091 46.0554 21.964 45.4026 21.964H41.4931V21.9642ZM42.85 16.2701H45.0669C45.6683 16.2701 46.0997 16.2322 46.3609 16.1564C46.7059 16.0581 46.9658 15.895 47.1407 15.6674C47.3156 15.4398 47.4029 15.1538 47.4029 14.8099C47.4029 14.484 47.3214 14.1969 47.1583 13.9491C46.9952 13.7013 46.762 13.5318 46.4589 13.4401C46.156 13.3488 45.636 13.3029 44.8994 13.3029H42.85V16.2701ZM42.85 20.8051H45.4026C45.8409 20.8051 46.1486 20.7893 46.3257 20.7582C46.6381 20.7046 46.8993 20.6153 47.109 20.4902C47.3189 20.3651 47.4913 20.1831 47.6266 19.9441C47.7618 19.7051 47.8295 19.4294 47.8295 19.1169C47.8295 18.7508 47.7315 18.4327 47.5358 18.1623C47.3398 17.892 47.0683 17.7023 46.7209 17.593C46.3736 17.4837 45.8733 17.4288 45.2207 17.4288H42.85V20.8051ZM50.8249 21.9642V14.8501H51.9579V15.9286C52.247 15.424 52.5141 15.0913 52.7587 14.9306C53.0036 14.7699 53.2728 14.6896 53.5665 14.6896C53.9908 14.6896 54.422 14.8191 54.8605 15.0781L54.4269 16.1968C54.1191 16.0227 53.8114 15.9354 53.5038 15.9354C53.2287 15.9354 52.9815 16.0148 52.7623 16.1733C52.5431 16.332 52.387 16.5517 52.2938 16.8333C52.154 17.2619 52.0841 17.7309 52.0841 18.2399V21.9645H50.8249V21.9642ZM56.33 13.5305V12.1437H57.5888V13.5305H56.33ZM56.33 21.9642V14.8501H57.5888V21.9642H56.33ZM64.5644 21.9642V21.0663C64.0935 21.7721 63.4011 22.1249 62.4872 22.1249C61.895 22.1249 61.3506 21.9684 60.8543 21.656C60.3577 21.3433 59.973 20.9067 59.7004 20.3462C59.4278 19.7858 59.2912 19.1416 59.2912 18.4138C59.2912 17.7038 59.4147 17.0594 59.6619 16.4811C59.909 15.9029 60.2797 15.4598 60.7739 15.1514C61.2682 14.8433 61.8206 14.6892 62.4314 14.6892C62.879 14.6892 63.2776 14.7796 63.6273 14.9605C63.977 15.1412 64.2615 15.3769 64.4807 15.6672V12.1437H65.7325V21.964H64.5644V21.9642ZM60.5848 18.4138C60.5848 19.3249 60.7853 20.0059 61.1861 20.457C61.5871 20.908 62.0604 21.1334 62.606 21.1334C63.1561 21.1334 63.6236 20.9181 64.0082 20.4872C64.3928 20.0562 64.5852 19.3984 64.5852 18.5143C64.5852 17.5409 64.3893 16.8263 63.9978 16.3708C63.606 15.9152 63.1235 15.6874 62.5501 15.6874C61.9905 15.6874 61.5233 15.9061 61.1479 16.3439C60.7724 16.7815 60.5848 17.4716 60.5848 18.4138ZM67.1959 22.5535L68.4198 22.7276C68.471 23.0895 68.6133 23.3529 68.8465 23.5183C69.1588 23.7416 69.5855 23.8533 70.1265 23.8533C70.7092 23.8533 71.1592 23.7416 71.4761 23.5183C71.7932 23.2949 72.0077 22.9824 72.1196 22.5805C72.1848 22.3349 72.2151 21.8191 72.2106 21.0331C71.6604 21.6538 70.975 21.9642 70.1542 21.9642C69.1333 21.9642 68.343 21.6113 67.7833 20.9056C67.2239 20.2 66.9441 19.3539 66.9441 18.3669C66.9441 17.688 67.0723 17.0618 67.3287 16.4879C67.5852 15.9139 67.9572 15.4708 68.4443 15.158C68.9317 14.8457 69.504 14.6892 70.1612 14.6892C71.0379 14.6892 71.7606 15.0287 72.3295 15.7074V14.8499H73.4906V20.9992C73.4904 22.1069 73.3728 22.8916 73.1373 23.354C72.902 23.8162 72.5288 24.1812 72.0183 24.4492C71.5078 24.7172 70.8794 24.8511 70.1334 24.8511C69.2475 24.8511 68.5318 24.6601 67.9864 24.2782C67.4409 23.8964 67.1773 23.3215 67.1959 22.5535ZM68.2382 18.2799C68.2382 19.2132 68.4316 19.8942 68.8186 20.3231C69.2055 20.7517 69.6904 20.9662 70.2733 20.9662C70.8515 20.9662 71.3363 20.7528 71.7279 20.3264C72.1196 19.8999 72.3153 19.2312 72.3153 18.3201C72.3153 17.4492 72.1137 16.7929 71.7104 16.3507C71.3071 15.9086 70.821 15.6876 70.2521 15.6876C69.6925 15.6876 69.217 15.9053 68.8254 16.3408C68.4339 16.776 68.2382 17.4222 68.2382 18.2799ZM79.9589 19.6732L81.2598 19.8273C81.0546 20.5553 80.6746 21.1202 80.1198 21.5221C79.5649 21.9238 78.8562 22.1249 77.9937 22.1249C76.9074 22.1249 76.0461 21.8044 75.4097 21.1635C74.7732 20.5228 74.455 19.6241 74.455 18.4674C74.455 17.2707 74.7768 16.3419 75.4202 15.681C76.0637 15.0201 76.8982 14.6896 77.924 14.6896C78.9172 14.6896 79.7284 15.0133 80.3579 15.661C80.9873 16.3083 81.3021 17.2194 81.3021 18.3938C81.3021 18.4654 81.2996 18.5725 81.2951 18.7154H75.7559C75.8027 19.4969 76.0334 20.0953 76.4483 20.5105C76.8633 20.926 77.3809 21.1334 78.0009 21.1334C78.4626 21.1334 78.8564 21.0173 79.183 20.7853C79.5095 20.5533 79.7678 20.1822 79.9589 19.6732ZM75.8257 17.724H79.973C79.9169 17.1255 79.7587 16.6766 79.4975 16.3775C79.0966 15.913 78.5766 15.6808 77.938 15.6808C77.3598 15.6808 76.8737 15.8661 76.4797 16.2368C76.0856 16.6075 75.8676 17.1031 75.8257 17.724ZM89.8569 18.5209L91.2137 18.8491C90.9293 19.9162 90.4175 20.7303 89.6786 21.2908C88.9396 21.8514 88.0362 22.1315 86.9685 22.1315C85.8635 22.1315 84.9648 21.9161 84.2724 21.4853C83.58 21.0544 83.053 20.4302 82.6919 19.613C82.3305 18.7957 82.1499 17.9182 82.1499 16.9802C82.1499 15.9578 82.354 15.0656 82.762 14.304C83.1697 13.5428 83.7505 12.9645 84.5034 12.5692C85.2564 12.1739 86.085 11.9766 86.9896 11.9766C88.0154 11.9766 88.8779 12.2266 89.5775 12.7268C90.2767 13.227 90.764 13.9302 91.0391 14.8369L89.7033 15.1382C89.4654 14.4238 89.1204 13.9036 88.6684 13.5775C88.2162 13.2515 87.6473 13.0885 86.9619 13.0885C86.1739 13.0885 85.5154 13.2693 84.9863 13.631C84.457 13.9929 84.0853 14.4785 83.8707 15.088C83.6562 15.6975 83.549 16.3261 83.549 16.9736C83.549 17.8087 83.6761 18.5376 83.9301 19.1607C84.1842 19.7836 84.5793 20.2493 85.1155 20.5573C85.6516 20.8655 86.232 21.0195 86.857 21.0195C87.617 21.0195 88.2604 20.8097 88.7874 20.39C89.3138 19.9702 89.6703 19.3471 89.8569 18.5209ZM97.1113 21.0865C96.645 21.4662 96.1963 21.7342 95.7649 21.8904C95.3337 22.0469 94.8709 22.1249 94.3767 22.1249C93.5607 22.1249 92.9335 21.9339 92.4955 21.5522C92.0572 21.1703 91.838 20.6824 91.838 20.0885C91.838 19.7403 91.9206 19.4221 92.0863 19.1341C92.2519 18.8462 92.4686 18.6149 92.7367 18.4408C93.0048 18.2665 93.3067 18.1348 93.6424 18.0455C93.8896 17.9831 94.2625 17.9228 94.7614 17.8648C95.7778 17.7485 96.5261 17.6102 97.0063 17.4494C97.011 17.2843 97.0133 17.1792 97.0133 17.1344C97.0133 16.6432 96.8945 16.2973 96.6566 16.0963C96.3349 15.8241 95.857 15.6876 95.2229 15.6876C94.6307 15.6876 94.1937 15.787 93.9118 15.9857C93.6297 16.1843 93.421 16.5361 93.2857 17.0407L92.0549 16.88C92.1669 16.3752 92.351 15.9679 92.6075 15.6573C92.864 15.3472 93.2346 15.1082 93.7195 14.9409C94.2043 14.7732 94.7662 14.6896 95.4048 14.6896C96.039 14.6896 96.5541 14.7611 96.9506 14.904C97.3469 15.0469 97.6381 15.2266 97.8247 15.4431C98.0111 15.6597 98.1418 15.9332 98.2165 16.2637C98.2583 16.4692 98.2794 16.8399 98.2794 17.3758V18.9835C98.2794 20.1044 98.3061 20.8136 98.3599 21.1105C98.4135 21.4075 98.5196 21.692 98.6781 21.9645H97.3632C97.2323 21.7142 97.1486 21.4214 97.1113 21.0865ZM97.0063 18.3936C96.5494 18.5723 95.864 18.7242 94.9501 18.8491C94.4325 18.9206 94.0665 19.001 93.8521 19.0901C93.6377 19.1794 93.4721 19.31 93.3554 19.4821C93.2387 19.6541 93.1805 19.8451 93.1805 20.0549C93.1805 20.3763 93.3076 20.6443 93.5617 20.8587C93.8157 21.0731 94.1876 21.1802 94.6773 21.1802C95.1621 21.1802 95.5934 21.0786 95.9712 20.8754C96.3487 20.6723 96.6261 20.3942 96.8034 20.0413C96.9387 19.7691 97.0063 19.3671 97.0063 18.8359V18.3936ZM100.223 21.9642V14.8501H101.356V15.9286C101.645 15.424 101.912 15.0913 102.157 14.9306C102.402 14.7699 102.671 14.6896 102.965 14.6896C103.389 14.6896 103.821 14.8191 104.259 15.0781L103.825 16.1968C103.517 16.0227 103.21 15.9354 102.902 15.9354C102.627 15.9354 102.38 16.0148 102.161 16.1733C101.942 16.332 101.785 16.5517 101.692 16.8333C101.552 17.2619 101.482 17.7309 101.482 18.2399V21.9645H100.223V21.9642ZM105.374 22.5535L106.598 22.7276C106.649 23.0895 106.791 23.3529 107.024 23.5183C107.337 23.7416 107.763 23.8533 108.304 23.8533C108.887 23.8533 109.337 23.7416 109.654 23.5183C109.971 23.2949 110.186 22.9824 110.297 22.5805C110.363 22.3349 110.393 21.8191 110.389 21.0331C109.838 21.6538 109.153 21.9642 108.332 21.9642C107.311 21.9642 106.521 21.6113 105.961 20.9056C105.402 20.2 105.122 19.3539 105.122 18.3669C105.122 17.688 105.25 17.0618 105.507 16.4879C105.763 15.9139 106.135 15.4708 106.622 15.158C107.11 14.8457 107.682 14.6892 108.339 14.6892C109.216 14.6892 109.938 15.0287 110.507 15.7074V14.8499H111.668V20.9992C111.668 22.1069 111.551 22.8916 111.315 23.354C111.08 23.8162 110.707 24.1812 110.196 24.4492C109.686 24.7172 109.057 24.8511 108.311 24.8511C107.426 24.8511 106.71 24.6601 106.164 24.2782C105.619 23.8965 105.355 23.3215 105.374 22.5535ZM106.416 18.2799C106.416 19.2132 106.609 19.8942 106.996 20.3231C107.383 20.7517 107.868 20.9662 108.451 20.9662C109.029 20.9662 109.514 20.7528 109.906 20.3264C110.297 19.8999 110.493 19.2312 110.493 18.3201C110.493 17.4492 110.292 16.7929 109.888 16.3507C109.485 15.9086 108.999 15.6876 108.43 15.6876C107.87 15.6876 107.395 15.9053 107.003 16.3408C106.611 16.7762 106.416 17.4222 106.416 18.2799ZM112.992 18.407C112.992 17.0897 113.375 16.1139 114.139 15.4798C114.778 14.9528 115.556 14.6892 116.475 14.6892C117.496 14.6892 118.331 15.0097 118.979 15.6505C119.627 16.2912 119.951 17.1766 119.951 18.3063C119.951 19.2218 119.808 19.9419 119.521 20.4667C119.234 20.9913 118.817 21.3989 118.269 21.689C117.721 21.9794 117.123 22.1245 116.475 22.1245C115.435 22.1245 114.595 21.8051 113.954 21.1666C113.313 20.5283 112.992 19.6083 112.992 18.407ZM114.286 18.407C114.286 19.3181 114.494 20.0003 114.909 20.4533C115.324 20.9067 115.846 21.1333 116.475 21.1333C117.1 21.1333 117.62 20.9056 118.035 20.45C118.45 19.9944 118.657 19.2999 118.657 18.3669C118.657 17.487 118.449 16.8204 118.031 16.3674C117.614 15.9139 117.095 15.6874 116.475 15.6874C115.846 15.6874 115.324 15.9128 114.909 16.3639C114.494 16.8149 114.286 17.496 114.286 18.407Z" fill="#324E96"/>
</g>
<defs>
<clipPath id="clip0_1050_6097">
<rect width="120" height="25" fill="white"/>
</clipPath>
</defs>
</svg>
