<svg width="101" height="41" viewBox="0 0 101 41" fill="none" xmlns="http://www.w3.org/2000/svg">
<path d="M35.9645 8.96096C35.6085 8.57135 35.4304 7.94798 35.4304 7.40252C35.4304 6.77915 35.6085 6.23369 35.9645 5.84408C36.3206 5.45447 36.7954 5.2207 37.3295 5.2207C37.8637 5.2207 38.3384 5.45447 38.6945 5.84408C39.0506 6.23369 39.2286 6.77915 39.2286 7.40252C39.2286 8.10382 39.0506 8.64928 38.6945 9.03889C38.3384 9.50642 37.8637 9.66226 37.3295 9.66226C36.7361 9.58434 36.3206 9.35057 35.9645 8.96096ZM35.7865 11.5324H38.8132V25.3246H35.7865V11.5324ZM53.2939 17.5324C53.7094 18.2337 53.9467 19.1688 53.9467 20.2597C53.9467 21.8181 53.472 23.0649 52.5818 23.9999C51.6915 24.8571 50.3859 25.3246 48.6648 25.3246H41.9586V7.40252H48.3088C49.9111 7.40252 51.0981 7.79213 51.9883 8.57135C52.8785 9.35057 53.2939 10.5194 53.2939 11.9999C53.2939 12.8571 53.1159 13.6363 52.7598 14.3376C52.4037 15.0389 51.9289 15.5064 51.3355 15.974C52.2257 16.2856 52.8785 16.7532 53.2939 17.5324ZM45.104 14.8051H48.0714C48.7835 14.8051 49.2583 14.6493 49.6144 14.2597C49.9705 13.8701 50.1485 13.3246 50.1485 12.6233C50.1485 11.922 49.9705 11.3765 49.6144 10.9869C49.2583 10.5973 48.7242 10.4415 48.0714 10.4415H45.104V14.8051ZM50.8013 19.8701C50.8013 18.3895 50.0892 17.6103 48.6055 17.6103H45.104V22.1298H48.5462C50.0298 22.2077 50.8013 21.4285 50.8013 19.8701ZM58.1604 24.5454C57.2702 23.922 56.6174 23.0649 56.0832 22.0519C55.6085 20.961 55.3711 19.7921 55.3711 18.3895C55.3711 16.9869 55.6085 15.8181 56.0832 14.7272C56.558 13.6363 57.2702 12.7791 58.1604 12.2337C59.0506 11.6103 60.0002 11.2986 61.1278 11.2986C62.2553 11.2986 63.2049 11.6103 64.0951 12.2337C64.926 12.7791 65.6381 13.7142 66.1129 14.7272C66.5877 15.8181 66.8251 16.9869 66.8251 18.3895C66.8251 19.7921 66.5877 20.961 66.1129 22.0519C65.6381 23.1428 64.926 23.9999 64.0951 24.5454C63.2049 25.1688 62.2553 25.4804 61.1278 25.4804C60.0002 25.4804 59.0506 25.1688 58.1604 24.5454ZM63.0862 21.1947C63.561 20.4934 63.8577 19.5584 63.8577 18.3895C63.8577 17.2207 63.6203 16.2856 63.0862 15.5843C62.6114 14.883 61.9586 14.5714 61.1871 14.5714C60.4156 14.5714 59.7628 14.883 59.2286 15.5843C58.6945 16.2856 58.4571 17.2207 58.4571 18.3895C58.4571 19.5584 58.6945 20.4934 59.2286 21.1947C59.7628 21.896 60.3562 22.2077 61.1871 22.2077C61.8993 22.2077 62.5521 21.896 63.0862 21.1947ZM78.8726 11.5324V25.3246H75.8459V14.8051H72.5224L72.4037 17.2207C72.3444 19.0129 72.2257 20.4934 71.9883 21.7402C71.7509 22.909 71.4542 23.8441 70.9794 24.5454C70.5046 25.2467 69.8518 25.5584 69.0209 25.5584C68.6055 25.5584 68.0714 25.4804 67.4186 25.2467L67.5966 21.974C67.834 21.974 67.9527 22.0519 68.0714 22.0519C68.5462 22.0519 68.8429 21.8181 69.0803 21.4285C69.3177 20.961 69.4364 20.4155 69.555 19.7921C69.6144 19.0908 69.6737 18.2337 69.7331 17.1428L69.9111 11.6103L78.8726 11.5324ZM90.2079 14.8051H84.8073V25.3246H81.7806V11.5324H90.2079V14.8051ZM99.6441 12.8571C100.534 13.8701 100.95 15.4285 100.95 17.4545V25.3246H98.1011V23.6103C97.5076 24.8571 96.4393 25.5584 94.8963 25.5584C94.0654 25.5584 93.4126 25.4025 92.8191 25.0129C92.2257 24.6233 91.7509 24.1558 91.4542 23.5324C91.1574 22.909 90.9794 22.2077 90.9794 21.3506C90.9794 20.1038 91.3355 19.0908 92.107 18.3116C92.8192 17.6103 93.9467 17.2207 95.4898 17.2207H97.923C97.923 16.3636 97.745 15.6623 97.3295 15.1947C96.9141 14.7272 96.3206 14.4934 95.4898 14.4934C94.9556 14.4934 94.3622 14.5714 93.8281 14.8051C93.2939 15.0389 92.8192 15.3506 92.4631 15.7402L91.3948 12.935C91.9883 12.3895 92.6411 11.9999 93.472 11.6882C94.2435 11.3765 95.0743 11.2207 95.9646 11.2207C97.5076 11.2986 98.7539 11.8441 99.6441 12.8571ZM97.0328 22.2856C97.4482 21.974 97.745 21.5064 97.8637 20.883V19.4804H95.7865C94.5402 19.4804 93.8874 20.0259 93.8874 21.1168C93.8874 21.6623 94.0654 22.0519 94.3622 22.3636C94.6589 22.6753 95.0743 22.8311 95.6085 22.8311C96.1426 22.8311 96.6174 22.5973 97.0328 22.2856Z" fill="white"/>
<path d="M39.4654 31.4809V35.7666H38.9313V32.6497L37.685 35.2991H37.4476L36.2607 32.6497V35.7666H35.7266V31.4809H36.32L37.6257 34.364L38.9313 31.4809H39.4654ZM41.1865 35.5328C40.9491 35.377 40.7117 35.0653 40.593 34.7536C40.4743 34.4419 40.3556 34.0523 40.3556 33.6627C40.3556 33.2731 40.415 32.8835 40.593 32.5718C40.7117 32.2601 40.9491 31.9484 41.1865 31.7926C41.4239 31.6367 41.7206 31.4809 42.0767 31.4809C42.3734 31.4809 42.6702 31.5588 42.9669 31.7926C43.2043 31.9484 43.4417 32.2601 43.5604 32.5718C43.6791 32.8835 43.7978 33.2731 43.7978 33.6627C43.7978 34.0523 43.7384 34.4419 43.5604 34.7536C43.4417 35.0653 43.2043 35.377 42.9669 35.5328C42.7295 35.6887 42.4328 35.8445 42.0767 35.8445C41.7206 35.8445 41.4239 35.6887 41.1865 35.5328ZM42.6108 34.9874C42.7889 34.8315 42.9076 34.6757 43.0263 34.4419C43.145 34.2082 43.145 33.9744 43.145 33.6627C43.145 33.351 43.0856 33.1173 43.0263 32.8835C42.9076 32.6497 42.7889 32.4939 42.6108 32.338C42.4328 32.1822 42.2548 32.1822 42.0767 32.1822C41.8987 32.1822 41.6613 32.2601 41.5426 32.338C41.3645 32.4939 41.2459 32.6497 41.1272 32.8835C41.0085 33.1173 41.0085 33.351 41.0085 33.6627C41.0085 33.9744 41.0678 34.2082 41.1272 34.4419C41.2459 34.6757 41.3645 34.8315 41.5426 34.9874C41.7206 35.1432 41.8987 35.1432 42.0767 35.1432C42.2548 35.1432 42.4328 35.0653 42.6108 34.9874ZM47.3586 31.4809V35.7666H46.7651V32.1822H45.3408L45.2815 33.1173C45.2815 33.6627 45.2221 34.2082 45.1628 34.5978C45.1034 34.9874 44.9847 35.2991 44.866 35.5328C44.7473 35.7666 44.5693 35.8445 44.3319 35.8445C44.2132 35.8445 44.0945 35.8445 43.9758 35.7666L44.0352 35.1432C44.0945 35.1432 44.1539 35.1432 44.1539 35.1432C44.3319 35.1432 44.4506 35.0653 44.5099 34.8315C44.5693 34.6757 44.6286 34.4419 44.688 34.1302C44.688 33.8965 44.7473 33.5069 44.7473 33.0393L44.8067 31.4809H47.3586ZM49.0203 35.5328C48.7829 35.377 48.5456 35.0653 48.4269 34.7536C48.3082 34.4419 48.1895 34.0523 48.1895 33.6627C48.1895 33.2731 48.2488 32.8835 48.4269 32.5718C48.5456 32.2601 48.7829 31.9484 49.0203 31.7926C49.2577 31.6367 49.5545 31.4809 49.9105 31.4809C50.2666 31.4809 50.504 31.5588 50.8007 31.7926C51.0381 31.9484 51.2755 32.2601 51.3942 32.5718C51.5129 32.8835 51.6316 33.2731 51.6316 33.6627C51.6316 34.0523 51.5723 34.4419 51.3942 34.7536C51.2755 35.0653 51.0381 35.377 50.8007 35.5328C50.5634 35.6887 50.2666 35.8445 49.9105 35.8445C49.5545 35.8445 49.3171 35.6887 49.0203 35.5328ZM50.4447 34.9874C50.6227 34.8315 50.7414 34.6757 50.8601 34.4419C50.9788 34.2082 50.9788 33.9744 50.9788 33.6627C50.9788 33.351 50.9194 33.1173 50.8601 32.8835C50.7414 32.6497 50.6227 32.4939 50.4447 32.338C50.2666 32.1822 50.0886 32.1822 49.9105 32.1822C49.7325 32.1822 49.4951 32.2601 49.3764 32.338C49.1984 32.4939 49.0797 32.6497 48.961 32.8835C48.8423 33.1173 48.8423 33.351 48.8423 33.6627C48.8423 33.9744 48.9016 34.2082 48.961 34.4419C49.0797 34.6757 49.1984 34.8315 49.3764 34.9874C49.5545 35.1432 49.7325 35.1432 49.9105 35.1432C50.0886 35.1432 50.326 35.0653 50.4447 34.9874ZM55.7266 35.0653V36.7017H55.1924V35.6887H52.4625V36.7017H51.9283V35.0653H52.1064C52.3438 35.0653 52.4625 34.8315 52.5218 34.5198C52.5812 34.1302 52.6405 33.5848 52.6999 32.9614L52.7592 31.4809H55.3111V35.0653C55.2518 35.0653 55.7266 35.0653 55.7266 35.0653ZM53.1153 34.364C53.0559 34.7536 52.9966 34.9874 52.8186 35.1432H54.6583V32.1822H53.234L53.1746 33.0393C53.1746 33.5069 53.1746 33.9744 53.1153 34.364ZM59.4654 33.8965H56.7948C56.8542 34.2861 56.9729 34.5978 57.1509 34.8315C57.3883 35.0653 57.6257 35.1432 57.9818 35.1432C58.3972 35.1432 58.6939 34.9874 58.9313 34.5978L59.2281 35.0653C59.1094 35.2991 58.872 35.4549 58.6939 35.6108C58.4565 35.7666 58.2191 35.7666 57.9818 35.7666C57.6257 35.7666 57.3289 35.6887 57.0915 35.4549C56.8542 35.2991 56.6168 34.9874 56.4981 34.6757C56.3794 34.364 56.2607 33.9744 56.2607 33.5069C56.2607 33.1173 56.32 32.7276 56.4981 32.416C56.6168 32.1043 56.8542 31.7926 57.0915 31.6367C57.3289 31.4809 57.6257 31.325 57.9224 31.325C58.2191 31.325 58.5159 31.403 58.7533 31.6367C58.9907 31.7926 59.1687 32.1043 59.3467 32.416C59.4654 32.7276 59.5248 33.1173 59.5248 33.5848C59.4654 33.7406 59.4654 33.8186 59.4654 33.8965ZM57.1509 32.416C56.9729 32.6497 56.8542 32.9614 56.7948 33.2731H58.872C58.8126 32.8835 58.7533 32.6497 58.5159 32.416C58.3378 32.1822 58.1005 32.1043 57.8037 32.1043C57.507 32.1043 57.3289 32.1822 57.1509 32.416ZM63.2637 33.9744H62.6108V35.7666H62.0174V33.9744H61.3645L60.4743 35.7666H59.7622L60.8898 33.5848L59.8809 31.4809H60.5337L61.4239 33.2731H62.0767V31.4809H62.6702V33.2731H63.323L64.2132 31.4809H64.866L63.8571 33.5848L64.9847 35.7666H64.2726L63.2637 33.9744ZM65.5189 31.4809H66.1123V33.2731H67.9521V31.4809H68.5456V35.7666H67.9521V33.9744H66.1123V35.7666H65.5189V31.4809ZM72.1064 33.351C72.3438 33.5848 72.4031 33.9744 72.4031 34.364C72.4031 34.8315 72.2844 35.2211 72.047 35.4549C71.8097 35.6887 71.4536 35.8445 71.0381 35.8445H69.6732V31.5588H70.2666V33.0393H71.1568C71.5723 32.9614 71.9283 33.0393 72.1064 33.351ZM71.6316 34.9874C71.7503 34.8315 71.8097 34.5978 71.8097 34.364C71.8097 34.0523 71.7503 33.8965 71.6316 33.7406C71.5129 33.5848 71.2755 33.5069 71.0381 33.5069H70.326V35.2211H71.0381C71.3349 35.2211 71.5129 35.1432 71.6316 34.9874ZM72.9372 31.4809H73.5307V35.7666H72.9372V31.4809ZM74.6583 31.4809H75.2518V34.5978L77.2696 31.4809H77.8037V35.7666H77.2103V32.6497L75.1924 35.7666H74.6583V31.4809ZM75.4892 30.6237C75.3111 30.4679 75.2518 30.1562 75.2518 29.7666H75.6672C75.6672 30.0004 75.7266 30.1562 75.8453 30.2341C75.964 30.39 76.0827 30.39 76.2607 30.39C76.4387 30.39 76.5574 30.3121 76.6761 30.2341C76.7948 30.0783 76.8542 29.9224 76.8542 29.7666H77.2696C77.2696 30.1562 77.1509 30.39 77.0322 30.6237C76.8542 30.7796 76.6168 30.9354 76.32 30.9354C75.9046 30.9354 75.6672 30.8575 75.4892 30.6237ZM84.2132 35.2211C83.8571 35.6108 83.3824 35.8445 82.7889 35.8445V37.325H82.1954V35.8445C81.6019 35.7666 81.1272 35.6108 80.7711 35.2211C80.415 34.8315 80.2963 34.2861 80.2963 33.6627C80.2963 32.9614 80.4743 32.4939 80.7711 32.1043C81.1272 31.7147 81.6019 31.5588 82.1954 31.4809V29.8445H82.7889V31.4809C83.3824 31.5588 83.8571 31.7147 84.2132 32.1043C84.5693 32.4939 84.7473 32.9614 84.7473 33.6627C84.7473 34.2861 84.5693 34.8315 84.2132 35.2211ZM81.2459 34.6757C81.4832 34.9095 81.78 35.0653 82.2548 35.1432V32.1043C81.78 32.1043 81.4832 32.2601 81.2459 32.5718C81.0085 32.8056 80.8898 33.1952 80.8898 33.5848C80.8898 34.0523 81.0085 34.4419 81.2459 34.6757ZM84.1539 33.5848C84.1539 33.1173 84.0352 32.8056 83.7978 32.4939C83.5604 32.2601 83.2637 32.1043 82.7889 32.0263V35.0653C83.6791 35.0653 84.1539 34.5198 84.1539 33.5848ZM86.1123 35.5328C85.8749 35.377 85.6376 35.0653 85.5189 34.7536C85.4002 34.4419 85.2815 34.0523 85.2815 33.6627C85.2815 33.2731 85.3408 32.8835 85.5189 32.5718C85.6376 32.2601 85.8749 31.9484 86.1123 31.7926C86.3497 31.6367 86.6465 31.4809 87.0025 31.4809C87.2993 31.4809 87.596 31.5588 87.8927 31.7926C88.1301 31.9484 88.3675 32.2601 88.4862 32.5718C88.6049 32.8835 88.7236 33.2731 88.7236 33.6627C88.7236 34.0523 88.6643 34.4419 88.4862 34.7536C88.3675 35.0653 88.1301 35.377 87.8927 35.5328C87.6554 35.6887 87.3586 35.8445 87.0025 35.8445C86.6465 35.8445 86.3497 35.6887 86.1123 35.5328ZM87.5367 34.9874C87.7147 34.8315 87.8334 34.6757 87.9521 34.4419C88.0708 34.2082 88.0708 33.9744 88.0708 33.6627C88.0708 33.351 88.0114 33.1173 87.9521 32.8835C87.8334 32.6497 87.7147 32.4939 87.5367 32.338C87.3586 32.1822 87.1806 32.1822 87.0025 32.1822C86.7651 32.1822 86.5871 32.2601 86.4684 32.338C86.2904 32.4939 86.1717 32.6497 86.053 32.8835C85.9343 33.1173 85.9343 33.351 85.9343 33.6627C85.9343 33.9744 85.9936 34.2082 86.053 34.4419C86.1717 34.6757 86.2904 34.8315 86.4684 34.9874C86.6465 35.1432 86.8245 35.1432 87.0025 35.1432C87.1806 35.1432 87.3586 35.0653 87.5367 34.9874ZM92.1064 31.7147C92.3438 31.8705 92.5812 32.1822 92.6999 32.4939C92.8186 32.8056 92.9373 33.1952 92.9373 33.6627C92.9373 34.1302 92.8779 34.4419 92.6999 34.8315C92.5812 35.1432 92.3438 35.4549 92.1064 35.6108C91.869 35.7666 91.5723 35.9224 91.2755 35.9224C91.0381 35.9224 90.8008 35.8445 90.6227 35.7666C90.4447 35.6108 90.2666 35.4549 90.1479 35.2211V37.403H89.5545V31.5588H90.1479V32.2601C90.2666 32.0263 90.4447 31.8705 90.6227 31.7147C90.8601 31.5588 91.0381 31.5588 91.2755 31.5588C91.5723 31.4809 91.869 31.5588 92.1064 31.7147ZM91.7503 34.9874C91.9284 34.8315 92.047 34.6757 92.1657 34.4419C92.2844 34.2082 92.2844 33.9744 92.2844 33.6627C92.2844 33.351 92.2251 33.1173 92.1657 32.8835C92.047 32.6497 91.9284 32.4939 91.7503 32.338C91.5723 32.1822 91.3942 32.1822 91.2162 32.1822C91.0381 32.1822 90.8008 32.2601 90.6821 32.338C90.504 32.4939 90.3853 32.6497 90.2666 32.8835C90.1479 33.1173 90.1479 33.351 90.1479 33.6627C90.1479 33.9744 90.2073 34.2082 90.2666 34.4419C90.3853 34.6757 90.504 34.8315 90.6821 34.9874C90.8601 35.1432 91.0381 35.1432 91.2162 35.1432C91.3942 35.1432 91.5723 35.0653 91.7503 34.9874ZM96.5574 31.4809L94.9551 36.1562C94.8364 36.6237 94.6583 36.9354 94.4803 37.0913C94.3022 37.2471 94.0649 37.325 93.8275 37.325C93.6494 37.325 93.5307 37.325 93.3527 37.2471C93.234 37.1692 93.0559 37.0913 92.9966 36.9354L93.234 36.39C93.412 36.6237 93.5901 36.7017 93.8275 36.7017C93.9462 36.7017 94.0648 36.6237 94.1835 36.5458C94.3022 36.4679 94.3616 36.3121 94.4209 36.0004L94.5396 35.6887L93.1153 31.403H93.7088L94.8364 34.8315L95.964 31.403L96.5574 31.4809ZM100.949 31.4809V35.7666H100.415V32.6497L99.1687 35.2991H98.9313L97.7444 32.6497V35.7666H97.2103V31.4809H97.8037L99.1094 34.364L100.415 31.4809H100.949Z" fill="white"/>
<path d="M2.31429 22.1299C3.02646 24.7013 4.45079 26.8052 6.29056 28.1299C8.07097 29.3767 10.7416 31.6364 12.1066 34.6754C14.2431 39.5065 13.6496 40.3637 15.5487 40.5974C18.9315 40.987 29.2579 21.6624 28.4271 12.6234C27.7742 5.76627 24.2134 2.49354 20.3558 3.66237C18.5161 4.20782 16.9137 5.76626 15.8455 7.94808C14.8959 9.89614 13.1748 12.5455 11.0383 11.6104C6.88403 9.89614 -0.0595933 13.4026 2.31429 22.1299Z" fill="#51BC0C"/>
<path d="M5.99243 20.4152C6.34852 21.7399 7.12003 22.9087 8.12893 23.61C10.4435 25.2464 13.6482 28.0516 15.4286 32.0256C15.488 32.1815 15.5473 32.3373 15.6067 32.4152C15.9034 33.0386 16.5562 33.2724 17.031 32.8828C17.1497 32.8048 17.209 32.7269 17.3277 32.5711C18.574 30.7009 19.8797 28.2853 21.0073 25.7918C23.7372 19.7918 24.7461 15.0386 24.5681 13.0126C24.3901 11.0646 23.8559 9.58405 23.0844 8.88275C22.5503 8.41522 21.9568 8.25938 21.2447 8.49314C20.4138 8.72691 19.6423 9.50613 19.1675 10.5191C18.2773 12.3113 17.3277 13.7918 16.2595 14.8048C14.301 16.675 12.1052 17.2204 9.96869 16.3633C9.90935 16.4412 5.28027 14.8048 5.99243 20.4152Z" fill="#0086EA"/>
<path d="M27.5371 0L26.2908 2.64935C26.2315 2.8052 26.1721 2.96104 26.1128 3.11688C25.9347 3.81818 25.816 4.51948 25.8754 5.2987C25.9347 6.7013 26.0534 8.72727 26.1721 10.2078C26.2908 12.2338 26.1721 14.2597 25.8754 16.2078V16.2857V16.3636C25.3412 19.4805 24.095 22.2857 22.2552 24.3896C21.4243 25.3247 20.4748 26.1039 19.5252 26.7273L19.4065 26.8052C19.1098 26.961 18.8131 27.1169 18.457 27.2727C17.9229 27.5065 17.3887 27.7403 16.9139 27.8961C15.3709 28.3636 13.8279 28.5195 12.2255 28.4416L9.49555 28.2857L8.72404 28.2078H8.48665L0 27.5844C1.83976 27.2727 3.62018 26.7273 5.34125 25.8701L5.45994 25.7922C6.82493 25.0909 8.01187 24 9.02077 22.5974C10.9199 19.7922 13.2938 17.6883 16.0237 16.5195C16.7953 16.1299 17.5668 15.6623 18.2196 14.961C19.7033 13.4026 20.6528 11.3766 21.1276 8.72727L21.365 7.32468C21.6617 5.76623 22.1365 4.90909 23.0267 4.20779L25.5193 1.87013L27.5371 0Z" fill="#FFCE00"/>
<path d="M18.5163 21.5065C19.4065 20.2597 20 18.9351 19.7626 17.6104C19.4659 15.974 17.8635 16.0519 16.3205 16.5195C14.7181 17.0649 13.1751 18 11.8101 19.2468C10.8012 20.1818 9.85163 21.2727 9.08012 22.5195C8.13056 23.9221 6.88427 25.0909 5.51929 25.7143L5.34125 25.8701C3.62018 26.7273 1.83976 27.2727 0 27.5844C6.17211 27.3507 15.4896 25.5584 18.5163 21.5065ZM27.2997 0.545455L27.5371 0L25.5193 1.87013L24.6291 2.64935C24.1543 3.03896 23.7389 3.50649 23.4421 4.12987C23.2641 4.44156 23.0861 4.83117 23.0267 5.14286C22.8487 5.76623 22.7893 6.38961 23.0861 6.85714C23.4421 7.4026 24.0356 7.01299 24.5697 6.38961C25.0445 5.92208 25.4006 5.37662 25.6973 4.67532C25.8754 4.28571 25.9941 3.8961 26.1128 3.50649C26.0534 3.35065 26.1128 3.27273 26.1128 3.11688C26.1721 2.96104 26.2315 2.8052 26.2908 2.64935L26.4095 2.41558" fill="black"/>
<path d="M25.9349 6.62338C25.8756 6.07792 25.8756 5.61039 25.8756 5.22078C25.8756 4.51948 25.9349 3.81818 26.113 3.11688C26.1723 2.96104 26.2317 2.8052 26.291 2.64935L27.5373 0C24.0952 4.5974 25.4008 6.23377 25.9349 6.62338Z" fill="#DB0E0E"/>
</svg>
