<svg width="120" height="45" viewBox="0 0 120 45" fill="none" xmlns="http://www.w3.org/2000/svg">
<g clip-path="url(#clip0_1050_6123)">
<path fill-rule="evenodd" clip-rule="evenodd" d="M58.2222 10.084H59.9479L59.9393 12.554H60.2966L62.3266 10.084H64.4015L61.665 13.2209L64.5441 16.5532H62.3891L60.3056 14.0471H59.9393L59.9479 16.5532H58.2222V10.084Z" fill="white"/>
<path fill-rule="evenodd" clip-rule="evenodd" d="M67.7798 13.3096C68.4323 13.3096 68.8344 12.9541 68.8344 12.4388V12.4208C68.8344 11.843 68.4237 11.5505 67.7612 11.5505H66.8587V13.3096H67.7798ZM65.1321 10.084H67.9043C69.5236 10.084 70.5611 10.9372 70.5611 12.3497V12.3677C70.5611 13.8874 69.3796 14.6875 67.7974 14.6875H66.8587V16.5532H65.1321V10.084Z" fill="white"/>
<path fill-rule="evenodd" clip-rule="evenodd" d="M75.7996 16.5532V12.7588L72.9649 16.5532H71.4534V10.084H73.18V13.7456L75.9165 10.084H77.5263V16.5532H75.7996Z" fill="white"/>
<path fill-rule="evenodd" clip-rule="evenodd" d="M78.8279 10.084H84.6227V16.5532H82.8966V11.6126H80.5545V16.5532H78.8279V10.084Z" fill="white"/>
<path fill-rule="evenodd" clip-rule="evenodd" d="M87.5048 11.6036H85.5544V10.084H91.1886V11.6036H89.2391V16.5536H87.5048V11.6036Z" fill="white"/>
<path fill-rule="evenodd" clip-rule="evenodd" d="M96.823 13.3362V13.3182C96.823 12.3503 96.1252 11.5142 95.0968 11.5142C94.0775 11.5142 93.3892 12.3323 93.3892 13.3007V13.3182C93.3892 14.2871 94.0861 15.1227 95.1149 15.1227C96.1433 15.1227 96.823 14.3046 96.823 13.3362ZM91.6091 13.3362V13.3182C91.6091 11.4611 93.1021 9.95898 95.1149 9.95898C97.1269 9.95898 98.6026 11.4431 98.6026 13.3007V13.3182C98.6026 15.1754 97.1088 16.6775 95.0968 16.6775C93.0849 16.6775 91.6091 15.1934 91.6091 13.3362Z" fill="white"/>
<path fill-rule="evenodd" clip-rule="evenodd" d="M99.6716 10.084H101.398V12.536H103.785V10.084H105.511V16.5532H103.785V14.0651H101.398V16.5532H99.6716V10.084Z" fill="white"/>
<path fill-rule="evenodd" clip-rule="evenodd" d="M111.163 16.5532V12.7588L108.328 16.5532H106.817V10.084H108.543V13.7456L111.279 10.084H112.889V16.5532H111.163Z" fill="white"/>
<path fill-rule="evenodd" clip-rule="evenodd" d="M115.767 11.6036H113.816V10.084H119.45V11.6036H117.501V16.5536H115.767V11.6036Z" fill="white"/>
<path fill-rule="evenodd" clip-rule="evenodd" d="M57.7383 26.2651L58.7123 25.1095C59.3476 25.6076 60.0364 25.8826 60.7867 25.8826C61.2966 25.8826 61.5747 25.7053 61.5747 25.4029V25.3853C61.5747 25.0924 61.3596 24.9407 60.4294 24.7189C59.0524 24.4079 58.0326 24.0254 58.0326 22.7015V22.6835C58.0326 21.4928 58.9899 20.6396 60.5105 20.6396C61.5747 20.6396 62.4323 20.9416 63.1301 21.4928L62.2625 22.7191C61.6725 22.301 61.0376 22.0792 60.4648 22.0792C60.0097 22.0792 59.7774 22.2749 59.7774 22.5242V22.5422C59.7774 22.8698 60.0097 22.9945 60.9661 23.2258C62.4237 23.5453 63.3176 24.0254 63.3176 25.2256V25.2431C63.3176 26.558 62.272 27.323 60.7333 27.323C59.6071 27.323 58.5339 26.9675 57.7383 26.2651Z" fill="white"/>
<path fill-rule="evenodd" clip-rule="evenodd" d="M65.7353 22.2667H63.7849V20.7471H69.419V22.2667H67.4696V27.2167H65.7353V22.2667Z" fill="white"/>
<path fill-rule="evenodd" clip-rule="evenodd" d="M73.3128 24.6302L72.5616 22.746L71.8017 24.6302H73.3128ZM71.7478 20.7021H73.4025L76.1743 27.2163H74.3326L73.8408 25.9986H71.2737L70.782 27.2163H68.9761L71.7478 20.7021Z" fill="white"/>
<path fill-rule="evenodd" clip-rule="evenodd" d="M79.938 23.865C80.5643 23.865 80.9302 23.5451 80.9302 23.0658V23.0478C80.9302 22.5146 80.5462 22.2392 79.9204 22.2392H78.686V23.865H79.938ZM76.9607 20.7461H80.0187C80.9755 20.7461 81.6547 20.9949 82.0935 21.4391C82.4689 21.8036 82.6654 22.3008 82.6654 22.9326V22.9587C82.6654 23.9631 82.1293 24.6116 81.3147 24.9495L82.8796 27.2153H80.8768L79.5531 25.2335H78.686V27.2153H76.9607V20.7461Z" fill="white"/>
<path fill-rule="evenodd" clip-rule="evenodd" d="M85.3043 22.2657H83.3549V20.7461H88.9885V22.2657H87.0391V27.2157H85.3043V22.2657Z" fill="white"/>
<path fill-rule="evenodd" clip-rule="evenodd" d="M89.8396 24.3907V20.7471H91.583V24.3547C91.583 25.3146 92.0666 25.7772 92.826 25.7772C93.5859 25.7772 94.0695 25.3326 94.0695 24.4087V20.7471H95.8129V24.3462C95.8129 26.4081 94.6328 27.3324 92.8079 27.3324C90.9839 27.3324 89.8396 26.3901 89.8396 24.3907Z" fill="white"/>
<path fill-rule="evenodd" clip-rule="evenodd" d="M99.6808 23.9727C100.334 23.9727 100.736 23.6172 100.736 23.1019V23.0839C100.736 22.5066 100.325 22.2136 99.6632 22.2136H98.7603V23.9727H99.6808ZM97.0341 20.7471H99.8063C101.425 20.7471 102.462 21.6003 102.462 23.0128V23.0308C102.462 24.5505 101.282 25.3506 99.699 25.3506H98.7603V27.2163H97.0341V20.7471Z" fill="white"/>
<path fill-rule="evenodd" clip-rule="evenodd" d="M57.9888 34.6614V34.6434C57.9888 32.7683 59.4283 31.2842 61.4135 31.2842C62.7195 31.2842 63.5513 31.8089 64.1319 32.555L62.8621 33.6035C62.4691 33.1503 62.0217 32.8484 61.3959 32.8484C60.439 32.8484 59.7774 33.648 59.7774 34.6254V34.6434C59.7774 35.6469 60.439 36.4385 61.3959 36.4385C62.0846 36.4385 62.4953 36.1275 62.9065 35.6564L64.1767 36.6077C63.5513 37.4163 62.7457 38.0022 61.3424 38.0022C59.4727 38.0022 57.9888 36.5807 57.9888 34.6614Z" fill="white"/>
<path fill-rule="evenodd" clip-rule="evenodd" d="M65.0981 31.4092H66.8243V33.8612H69.2112V31.4092H70.9378V37.8784H69.2112V35.3908H66.8243V37.8784H65.0981V31.4092Z" fill="white"/>
<path fill-rule="evenodd" clip-rule="evenodd" d="M76.0479 35.2923L75.2966 33.4082L74.5368 35.2923H76.0479ZM74.4829 31.3643H76.1371L78.9089 37.878H77.0677L76.5759 36.6608H74.0088L73.517 37.878H71.7107L74.4829 31.3643Z" fill="white"/>
<path fill-rule="evenodd" clip-rule="evenodd" d="M79.6995 31.4092H81.4252V36.3592H84.5995V37.8784H79.6995V31.4092Z" fill="white"/>
<path fill-rule="evenodd" clip-rule="evenodd" d="M85.5115 31.4092H87.2377V36.3592H90.4115V37.8784H85.5115V31.4092Z" fill="white"/>
<path fill-rule="evenodd" clip-rule="evenodd" d="M91.3201 31.4092H96.4887V32.8757H93.0277V33.9328H96.14V35.3102H93.0277V36.4123H96.5335V37.8784H91.3201V31.4092Z" fill="white"/>
<path fill-rule="evenodd" clip-rule="evenodd" d="M97.6052 31.4092H99.215L101.969 34.9372V31.4092H103.677V37.8784H102.175L99.3133 34.2172V37.8784H97.6052V31.4092Z" fill="white"/>
<path fill-rule="evenodd" clip-rule="evenodd" d="M104.75 34.6614V34.6434C104.75 32.7683 106.226 31.2842 108.237 31.2842C109.382 31.2842 110.169 31.6221 110.858 32.2085L109.829 33.4437C109.355 33.0522 108.899 32.8214 108.229 32.8214C107.271 32.8214 106.53 33.63 106.53 34.6434V34.6614C106.53 35.736 107.271 36.5091 108.327 36.5091C108.792 36.5091 109.15 36.4119 109.436 36.2162V35.4075H108.13V34.1097H111.081V36.9978C110.401 37.5671 109.454 38.0022 108.265 38.0022C106.234 38.0022 104.75 36.6167 104.75 34.6614Z" fill="white"/>
<path fill-rule="evenodd" clip-rule="evenodd" d="M112.234 31.4092H117.403V32.8757H113.942V33.9328H117.054V35.3102H113.942V36.4123H117.448V37.8784H112.234V31.4092Z" fill="white"/>
<path fill-rule="evenodd" clip-rule="evenodd" d="M4.43432 3.0285C3.66994 3.0285 3.0473 3.64725 3.0473 4.4073C3.0473 5.16735 3.66994 5.7852 4.43432 5.7852C5.19915 5.7852 5.82134 5.16735 5.82134 4.4073C5.82134 3.64725 5.19915 3.0285 4.43432 3.0285ZM4.43432 8.8137C1.98949 8.8137 -0.000244141 6.83685 -0.000244141 4.4073C-0.000244141 1.97685 1.98949 0 4.43432 0C6.8796 0 8.86889 1.97685 8.86889 4.4073C8.86889 6.83685 6.8796 8.8137 4.43432 8.8137Z" fill="#F7B500"/>
<path fill-rule="evenodd" clip-rule="evenodd" d="M29.614 3.0285C28.8496 3.0285 28.227 3.64725 28.227 4.4073C28.227 5.16735 28.8496 5.7852 29.614 5.7852C30.3788 5.7852 31.0015 5.16735 31.0015 4.4073C31.0015 3.64725 30.3788 3.0285 29.614 3.0285ZM29.614 8.8137C27.1692 8.8137 25.1794 6.83685 25.1794 4.4073C25.1794 1.97685 27.1692 0 29.614 0C32.0593 0 34.0486 1.97685 34.0486 4.4073C34.0486 6.83685 32.0593 8.8137 29.614 8.8137Z" fill="#F7B500"/>
<path fill-rule="evenodd" clip-rule="evenodd" d="M39.8587 3.0285C39.0938 3.0285 38.4717 3.64725 38.4717 4.4073C38.4717 5.16735 39.0938 5.7852 39.8587 5.7852C40.623 5.7852 41.2457 5.16735 41.2457 4.4073C41.2457 3.64725 40.623 3.0285 39.8587 3.0285ZM39.8587 8.8137C37.4138 8.8137 35.4246 6.83685 35.4246 4.4073C35.4246 1.97685 37.4138 0 39.8587 0C42.3035 0 44.2932 1.97685 44.2932 4.4073C44.2932 6.83685 42.3035 8.8137 39.8587 8.8137Z" fill="#F7B500"/>
<path fill-rule="evenodd" clip-rule="evenodd" d="M15.2624 15.3816C14.4981 15.3816 13.8754 16.0003 13.8754 16.7604C13.8754 17.5204 14.4981 18.1383 15.2624 18.1383C16.0273 18.1383 16.6499 17.5204 16.6499 16.7604C16.6499 16.0003 16.0273 15.3816 15.2624 15.3816ZM15.2624 21.1668C12.8176 21.1668 10.8279 19.1899 10.8279 16.7604C10.8279 14.3299 12.8176 12.3535 15.2624 12.3535C17.7077 12.3535 19.697 14.3299 19.697 16.7604C19.697 19.1899 17.7077 21.1668 15.2624 21.1668Z" fill="#F7B500"/>
<path fill-rule="evenodd" clip-rule="evenodd" d="M25.5042 15.3816C24.7394 15.3816 24.1172 16.0003 24.1172 16.7604C24.1172 17.5204 24.7394 18.1383 25.5042 18.1383C26.2686 18.1383 26.8912 17.5204 26.8912 16.7604C26.8912 16.0003 26.2686 15.3816 25.5042 15.3816ZM25.5042 21.1668C23.0589 21.1668 21.0701 19.1899 21.0701 16.7604C21.0701 14.3299 23.0589 12.3535 25.5042 12.3535C27.949 12.3535 29.9387 14.3299 29.9387 16.7604C29.9387 19.1899 27.949 21.1668 25.5042 21.1668Z" fill="#F7B500"/>
<path fill-rule="evenodd" clip-rule="evenodd" d="M4.43432 26.6506C3.66994 26.6506 3.0473 27.2693 3.0473 28.0289C3.0473 28.7894 3.66994 29.4073 4.43432 29.4073C5.19915 29.4073 5.82134 28.7894 5.82134 28.0289C5.82134 27.2693 5.19915 26.6506 4.43432 26.6506ZM4.43432 32.4353C1.98949 32.4353 -0.000244141 30.4589 -0.000244141 28.0289C-0.000244141 25.5989 1.98949 23.6221 4.43432 23.6221C6.8796 23.6221 8.86889 25.5989 8.86889 28.0289C8.86889 30.4589 6.8796 32.4353 4.43432 32.4353Z" fill="#F7B500"/>
<path fill-rule="evenodd" clip-rule="evenodd" d="M29.614 26.6515C28.8496 26.6515 28.227 27.2703 28.227 28.0299C28.227 28.7904 28.8496 29.4082 29.614 29.4082C30.3788 29.4082 31.0015 28.7904 31.0015 28.0299C31.0015 27.2703 30.3788 26.6515 29.614 26.6515ZM29.614 32.4363C27.1692 32.4363 25.1794 30.4599 25.1794 28.0299C25.1794 25.5999 27.1692 23.623 29.614 23.623C32.0593 23.623 34.0486 25.5999 34.0486 28.0299C34.0486 30.4599 32.0593 32.4363 29.614 32.4363Z" fill="#F7B500"/>
<path fill-rule="evenodd" clip-rule="evenodd" d="M39.8587 26.6506C39.0938 26.6506 38.4717 27.2693 38.4717 28.0289C38.4717 28.7894 39.0938 29.4073 39.8587 29.4073C40.623 29.4073 41.2457 28.7894 41.2457 28.0289C41.2457 27.2693 40.623 26.6506 39.8587 26.6506ZM39.8587 32.4353C37.4138 32.4353 35.4246 30.4589 35.4246 28.0289C35.4246 25.5989 37.4138 23.6221 39.8587 23.6221C42.3035 23.6221 44.2932 25.5989 44.2932 28.0289C44.2932 30.4589 42.3035 32.4353 39.8587 32.4353Z" fill="#F7B500"/>
<path fill-rule="evenodd" clip-rule="evenodd" d="M15.2624 39.0036C14.4981 39.0036 13.8754 39.6224 13.8754 40.3824C13.8754 41.1425 14.4981 41.7603 15.2624 41.7603C16.0273 41.7603 16.6499 41.1425 16.6499 40.3824C16.6499 39.6224 16.0273 39.0036 15.2624 39.0036ZM15.2624 44.7888C12.8176 44.7888 10.8279 42.812 10.8279 40.3824C10.8279 37.952 12.8176 35.9756 15.2624 35.9756C17.7077 35.9756 19.697 37.952 19.697 40.3824C19.697 42.812 17.7077 44.7888 15.2624 44.7888Z" fill="#F7B500"/>
<path fill-rule="evenodd" clip-rule="evenodd" d="M25.5042 39.0036C24.7394 39.0036 24.1172 39.6224 24.1172 40.3824C24.1172 41.1425 24.7394 41.7603 25.5042 41.7603C26.2686 41.7603 26.8912 41.1425 26.8912 40.3824C26.8912 39.6224 26.2686 39.0036 25.5042 39.0036ZM25.5042 44.7888C23.0589 44.7888 21.0701 42.812 21.0701 40.3824C21.0701 37.952 23.0589 35.9756 25.5042 35.9756C27.949 35.9756 29.9387 37.952 29.9387 40.3824C29.9387 42.812 27.949 44.7888 25.5042 44.7888Z" fill="#F7B500"/>
<path fill-rule="evenodd" clip-rule="evenodd" d="M10.9911 8.34727H14.0382V0.370117H10.9911V8.34727Z" fill="white"/>
<path fill-rule="evenodd" clip-rule="evenodd" d="M15.6365 8.34727H18.684V0.370117H15.6365V8.34727Z" fill="white"/>
<path fill-rule="evenodd" clip-rule="evenodd" d="M20.2808 8.34727H23.3283V0.370117H20.2808V8.34727Z" fill="white"/>
<path fill-rule="evenodd" clip-rule="evenodd" d="M31.9569 20.7492H35.0045V12.7725H31.9569V20.7492Z" fill="white"/>
<path fill-rule="evenodd" clip-rule="evenodd" d="M36.6017 20.7492H39.6492V12.7725H36.6017V20.7492Z" fill="white"/>
<path fill-rule="evenodd" clip-rule="evenodd" d="M41.2467 20.7492H44.2943V12.7725H41.2467V20.7492Z" fill="white"/>
<path fill-rule="evenodd" clip-rule="evenodd" d="M1.16772 20.7492H4.21527V12.7725H1.16772V20.7492Z" fill="white"/>
<path fill-rule="evenodd" clip-rule="evenodd" d="M5.81274 20.7492H8.86029V12.7725H5.81274V20.7492Z" fill="white"/>
<path fill-rule="evenodd" clip-rule="evenodd" d="M10.9911 31.9689H14.0382V23.9922H10.9911V31.9689Z" fill="white"/>
<path fill-rule="evenodd" clip-rule="evenodd" d="M15.6365 31.9679H18.684V23.9912H15.6365V31.9679Z" fill="white"/>
<path fill-rule="evenodd" clip-rule="evenodd" d="M20.2808 31.9689H23.3283V23.9922H20.2808V31.9689Z" fill="white"/>
<path fill-rule="evenodd" clip-rule="evenodd" d="M31.9569 44.3717H35.0045V36.3945H31.9569V44.3717Z" fill="white"/>
<path fill-rule="evenodd" clip-rule="evenodd" d="M36.6017 44.3717H39.6492V36.3945H36.6017V44.3717Z" fill="white"/>
<path fill-rule="evenodd" clip-rule="evenodd" d="M41.2467 44.3717H44.2943V36.3945H41.2467V44.3717Z" fill="white"/>
<path fill-rule="evenodd" clip-rule="evenodd" d="M1.16772 44.3717H4.21527V36.3945H1.16772V44.3717Z" fill="white"/>
<path fill-rule="evenodd" clip-rule="evenodd" d="M5.81274 44.3717H8.86029V36.3945H5.81274V44.3717Z" fill="white"/>
</g>
<defs>
<clipPath id="clip0_1050_6123">
<rect width="120" height="45" fill="white"/>
</clipPath>
</defs>
</svg>
