<svg width="120" height="56" viewBox="0 0 120 56" fill="none" xmlns="http://www.w3.org/2000/svg">
<path d="M80.1224 0.508536L84.7036 17.1885H87.84L89.7923 7.43615L90.3613 4.21029L90.9321 7.43615L92.884 17.1904H96.1173L100.663 0.510457H97.2252L95.0706 10.1649L94.5724 12.721L94.0796 10.0613L92.1591 0.508536H88.5967L86.7711 10.1227L86.3061 12.7268L85.8416 10.069L83.7073 0.508536H80.1224ZM79.6056 8.82547C79.6056 5.77046 78.7908 3.47723 77.1609 1.94587C75.941 0.648626 74.1764 0 71.8658 0C69.5553 0 67.7903 0.648626 66.5708 1.94587C64.9346 3.48107 64.1159 5.77429 64.1145 8.82547C64.1145 11.8217 64.9333 14.1149 66.5708 15.7051C67.7916 17.0049 69.5566 17.6542 71.8658 17.6529C74.1751 17.6516 75.9401 17.0024 77.1609 15.7051C78.7908 14.1149 79.6056 11.8217 79.6056 8.82547ZM71.8658 14.6996C70.5294 14.6996 69.4632 14.1878 68.6661 13.1644C67.8691 12.1409 67.4706 10.692 67.4706 8.8178C67.4706 6.93849 67.8691 5.49028 68.6661 4.47319C69.4632 3.45612 70.5294 2.94439 71.8658 2.93799C73.2044 2.93799 74.2658 3.44972 75.0505 4.47319C75.8351 5.49666 76.2279 6.94297 76.2292 8.81207C76.2292 10.6901 75.8365 12.139 75.0505 13.1586C74.2649 14.1782 73.2031 14.69 71.8658 14.6938V14.6996ZM48.4827 8.98477C48.4827 11.6714 49.1407 13.7912 50.4571 15.3443C51.7731 16.8974 53.5811 17.6651 55.8801 17.6472C57.7395 17.6472 59.2636 17.0772 60.4521 15.9373C61.6406 14.7974 62.3796 13.3192 62.6683 11.5025H59.3216C59.0998 12.3622 58.8208 13.007 58.4852 13.4369C57.879 14.2377 56.996 14.6375 55.8359 14.6362C55.2974 14.6448 54.7647 14.5228 54.2803 14.2802C53.7959 14.0375 53.3734 13.681 53.0471 13.2392C52.3142 12.3066 51.948 10.9051 51.948 9.03465C51.948 7.16425 52.2952 5.71799 52.9891 4.69582C53.2973 4.2105 53.7206 3.81467 54.2192 3.54595C54.7173 3.27723 55.2739 3.14457 55.8359 3.1606C57.0168 3.1606 57.9082 3.52265 58.5091 4.24675C58.8452 4.6536 59.121 5.25681 59.3367 6.05636H62.7131C62.6635 5.01626 62.2946 3.97937 61.6065 2.94567C60.3671 1.10599 58.4006 0.185502 55.7075 0.184223C53.6971 0.184223 52.041 0.870589 50.7396 2.24331C49.235 3.82585 48.4827 6.07298 48.4827 8.98477ZM34.0848 12.0417C34.0848 13.7765 34.6947 15.1403 35.9143 16.133C37.1339 17.1258 38.8072 17.6216 40.9342 17.6203C43.0165 17.6203 44.6276 17.1169 45.7683 16.11C46.3138 15.6524 46.7517 15.0727 47.048 14.4148C47.3447 13.7569 47.4925 13.0379 47.4806 12.3123C47.4806 10.827 46.9988 9.69222 46.0357 8.90801C45.4162 8.3963 44.4863 7.99262 43.247 7.69711L40.4098 7.00629C39.3167 6.74145 38.6009 6.5131 38.2643 6.31542C38.0203 6.1955 37.8157 6.00432 37.6759 5.76554C37.5361 5.52677 37.4673 5.2509 37.4779 4.97215C37.4693 4.66924 37.5386 4.36942 37.6787 4.10312C37.8187 3.83684 38.0247 3.6136 38.2755 3.45613C38.8072 3.09279 39.5187 2.91176 40.4098 2.91304C41.1027 2.88985 41.7914 3.03306 42.4216 3.33138C43.2321 3.75612 43.666 4.46936 43.723 5.47107H46.9674C46.9076 3.69792 46.2695 2.34566 45.0522 1.4143C43.8352 0.482948 42.3651 0.0172703 40.6423 0.0172703C38.5773 0.0172703 37.0125 0.511095 35.9478 1.49874C35.433 1.96025 35.0229 2.533 34.7466 3.17638C34.4703 3.81976 34.3345 4.51799 34.3489 5.22161C34.3489 6.85789 34.893 8.06107 35.9812 8.83124C36.6245 9.29182 37.8063 9.71781 39.5268 10.1093L41.2762 10.5065C42.2988 10.733 43.0481 10.992 43.5185 11.2876C43.7381 11.4137 43.9203 11.5995 44.0451 11.8247C44.17 12.05 44.2328 12.3062 44.2268 12.5656C44.2268 13.5098 43.7453 14.1546 42.7822 14.5C42.1404 14.7017 41.4709 14.7938 40.8003 14.7725C39.4431 14.7725 38.4844 14.429 37.9241 13.742C37.618 13.3659 37.4128 12.7966 37.3087 12.0341L34.0848 12.0417ZM32.9693 8.82741C32.9693 5.77235 32.1544 3.47915 30.5245 1.94779C29.3036 0.650539 27.538 0.00192088 25.2276 0.00192088C22.9172 0.00192088 21.1522 0.650539 19.9326 1.94779C18.2965 3.48299 17.4778 5.77619 17.4766 8.82741C17.4766 11.8236 18.2952 14.1168 19.9326 15.7071C21.1534 17.0069 22.9185 17.6561 25.2276 17.6548C27.5367 17.6535 29.3024 17.0043 30.5245 15.7071C32.1531 14.1168 32.9681 11.8236 32.9693 8.82741ZM25.2276 14.7015C23.8914 14.7015 22.8243 14.1898 22.026 13.1663C21.2278 12.1428 20.8299 10.694 20.8324 8.81974C20.8324 6.94038 21.2303 5.49218 22.026 4.47513C22.8218 3.45804 23.8889 2.94631 25.2276 2.93991C26.5662 2.93991 27.6278 3.45165 28.4124 4.47513C29.197 5.4986 29.5899 6.94486 29.5912 8.81397C29.5912 10.692 29.1982 12.1409 28.4124 13.1605C27.6266 14.1801 26.565 14.6919 25.2276 14.6957V14.7015ZM7.85145 13.6211L4.91389 0.508536H0V17.1885H3.14578V5.90094C3.14578 5.57726 3.14206 5.12245 3.13462 4.53652C3.12719 3.95059 3.12347 3.50282 3.12347 3.19322L6.16512 17.1904H9.43917L12.5013 3.19322C12.5013 3.50922 12.4976 3.95699 12.4901 4.53652C12.4827 5.11607 12.479 5.57088 12.479 5.90094V17.1827H15.6248V0.508536H10.7741L7.85145 13.6211Z" fill="#515151"/>
<path d="M74.2456 51.9582L63.6577 52.7625L69.6352 53.3974L59.7925 52.8469L69.1516 51.8872C69.1516 51.8872 63.1521 51.2733 63.1335 51.2522C64.6505 51.0812 67.3038 50.7224 67.3463 50.7224V48.4789H70.8396C72.5298 48.5 73.3963 49.2198 73.4428 50.659L68.7168 51.1678L74.2456 51.9582ZM70.0014 41.9008C71.0499 41.9008 71.8253 42.0716 72.3066 42.3882C72.7884 42.7048 73.0279 43.2554 73.0337 44.0174C73.0337 45.3744 72.067 46.0515 70.1758 46.0937H67.3463L67.3649 41.9008H70.0014ZM79.182 51.8949L72.3292 51.2389C72.3292 51.2389 75.8335 50.7301 77.5348 50.5402C77.4834 49.7514 77.2146 48.9941 76.7594 48.3583C76.4202 47.8832 76.008 47.4683 75.54 47.1302C76.5309 46.2837 77.0459 45.2667 77.0273 44.188C77.0415 43.5445 76.9321 42.9042 76.705 42.3044C76.4783 41.7046 76.1382 41.1572 75.7051 40.6937C75.2539 40.1943 74.7066 39.7973 74.0986 39.5277C73.4902 39.2581 72.8344 39.122 72.1729 39.1278H63.7153L63.7321 50.6668L58.941 51.1755L65.502 51.9582L55.5327 52.7836L64.3866 53.5663L58.1377 54.2801L63.985 54.7238V55.6986H72.4071C73.5655 55.6986 74.2793 55.6353 75.1401 54.9999C75.9376 54.9577 77.5569 54.8293 77.5569 54.8293L70.9977 54.2801L78.9106 53.4319L69.8247 52.8181L79.182 51.8949ZM60.9841 49.9048L60.9748 48.9722V39.0645H57.1857V49.1432V49.8837L50.5038 50.6513L56.4754 51.3444L47.1385 52.0849C49.6505 52.2538 54.0179 52.868 54.0179 52.868L42.4572 52.1271L50.8979 51.3866L44.0821 50.5824L50.645 49.9259V49.5653V39.0645H46.8786V49.9048L40.3116 50.5824L47.0198 51.3866L38.4803 52.0849L48.0015 53.0446L41.033 53.5129C41.033 53.5129 45.9805 53.9579 48.4864 54.169C48.5851 54.2555 48.702 54.3611 48.8211 54.4455C49.4769 54.981 50.2288 55.3768 51.0338 55.6103C51.9735 55.8563 52.9401 55.9765 53.9098 55.9691C54.9004 55.9842 55.8883 55.855 56.8439 55.5853C57.6679 55.3518 58.4344 54.9405 59.0933 54.3783L59.2124 54.2728C57.1096 54.1018 52.3242 53.5512 52.3242 53.5512L60.2592 52.8947L51.5581 52.0905L60.7184 51.3922L54.501 50.6091L60.9841 49.9048ZM29.716 54.3301L29.6974 55.7059H33.1908V55.5142L33.2169 54.265L26.124 53.6507L33.4084 52.8659L24.2444 52.1887L33.0254 51.4211L26.4233 50.6341L33.2913 49.9358L33.2652 48.771H40.9809V49.9224L34.2618 50.6207L40.5924 51.3616L30.8334 52.2288L41.1706 52.9697L33.533 53.7046L40.9066 54.2801L40.8843 55.6986H44.3143V54.8504L44.3572 54.259C41.3175 54.0251 36.939 53.6662 36.939 53.6662L44.4874 52.8181L34.4607 52.1827L44.0691 51.3155L37.7311 50.659L44.3909 49.8914V39.1201H40.9772V46.0016H33.2801V39.1201H29.8108L29.7997 49.8974L22.9504 50.6341L29.7904 51.4017L19.6094 52.2059L29.7997 52.937L22.4298 53.7218L29.716 54.3301Z" fill="#FFF245"/>
<path d="M108.554 36.9368H119.999V33.9393H111.931V20.2568H108.554V36.9368ZM106.202 20.2568H94.3499V36.9368H106.597V33.9393H97.6519V29.6504H105.501V26.7527H97.6519V23.2102H106.204L106.202 20.2568ZM85.8644 32.9223L82.3561 20.2568H78.7494L84.2137 36.9368H87.4041L92.9165 20.2568H89.4064L85.8644 32.9223ZM64.9167 36.9368H68.4494L69.5444 33.5095H75.4939L76.5554 36.9368H80.2182L74.51 20.2568H70.686L64.9167 36.9368ZM72.5599 24.0699L74.6052 30.6348H70.4628L72.5599 24.0699ZM58.3353 20.2568H50.599V36.9368H53.8993V30.3968H57.1973C58.1382 30.3968 58.7794 30.574 59.1217 30.9284C59.4635 31.2828 59.6416 31.9922 59.6553 33.0566L59.6774 34.6052C59.6836 35.0878 59.7314 35.5688 59.8204 36.0426C59.8634 36.269 59.9378 36.5683 60.0401 36.9368H63.7676V36.5185C63.6042 36.4151 63.4638 36.2769 63.3562 36.1131C63.2482 35.9493 63.1756 35.7637 63.1432 35.5686C63.0671 35.0556 63.0374 34.5366 63.0538 34.018V32.8973C63.0538 31.7293 62.8984 30.86 62.5871 30.2894C62.2762 29.7188 61.7489 29.2793 61.0049 28.971C61.8272 28.7127 62.5171 28.129 62.9236 27.3476C63.2987 26.6289 63.4979 25.8265 63.5037 25.0102C63.5134 24.4112 63.412 23.8158 63.2044 23.2562C63.0073 22.7472 62.7328 22.2737 62.3918 21.8534C61.9853 21.345 61.4663 20.9448 60.8787 20.6867C60.2836 20.4232 59.4339 20.2798 58.3295 20.2568H58.3353ZM57.6286 23.1545C58.3229 23.1545 58.8427 23.2524 59.1886 23.4481C59.808 23.7961 60.118 24.4754 60.118 25.4861C60.118 26.4213 59.7987 27.0475 59.1607 27.3648C58.7976 27.5452 58.256 27.6354 57.5356 27.6354H53.8993V23.1545H57.6286ZM36.1324 20.2568V23.2102H40.9887V36.9368H44.3909V23.2102H49.225V20.2568H36.1324Z" fill="#515151"/>
</svg>
