<svg width="120" height="30" viewBox="0 0 120 30" fill="none" xmlns="http://www.w3.org/2000/svg">
<path d="M94.6492 16.8975L98.8228 21.5374H96.1116L92.8835 17.9616V21.5374H90.6359V12.8856H92.8835V16.0253L96.0584 12.8856H98.7158L94.6492 16.8975ZM27.4013 15.2232C29.0422 15.2232 29.7914 14.4558 29.7914 13.3043C29.7914 12.1535 29.0422 11.3854 27.4013 11.3854H24.1549V15.2232H27.4013ZM27.4728 9.32715C30.2911 9.32715 32.1455 10.74 32.1455 13.3043C32.1455 15.8686 30.2905 17.2815 27.4728 17.2815H24.1555V21.5374H21.8008V9.32715H27.4728ZM37.4597 19.7238C38.7796 19.7238 40.0101 18.799 40.0101 17.2115C40.0101 15.624 38.7796 14.6998 37.4597 14.6998C36.1399 14.6998 34.9093 15.624 34.9093 17.2115C34.9093 18.799 36.1405 19.7238 37.4597 19.7238ZM37.4597 12.6416C39.8854 12.6416 42.2933 14.1764 42.2933 17.2115C42.2933 20.2466 39.8854 21.782 37.4597 21.782C35.0341 21.782 32.6262 20.2472 32.6262 17.2115C32.6262 14.1764 35.0341 12.6416 37.4597 12.6416ZM48.0307 19.7238C46.6754 19.7238 45.6767 18.7643 45.6767 17.2121C45.6767 15.6772 46.7109 14.7004 48.0307 14.7004C48.8332 14.7004 49.5292 15.0665 50.0821 15.8866L52.0086 14.8051C51.3664 13.4616 49.975 12.6422 48.0491 12.6422C45.5342 12.6422 43.3935 14.4564 43.3935 17.2127C43.3935 19.969 45.4271 21.7826 48.0491 21.7826C49.9396 21.7826 51.2056 20.9458 52.0979 19.463L50.2429 18.4688C49.7072 19.2004 49.1365 19.7238 48.0307 19.7238ZM71.9592 17.7875C71.8522 19.113 71.5843 19.4097 71.1207 19.4097C70.8039 19.4097 70.6547 19.3756 70.4382 19.32L70.4498 21.5589C70.4498 21.5589 70.7293 21.6427 71.2461 21.6427C73.1543 21.6427 73.8681 20.4392 74.0466 17.8749L74.2607 14.8571H76.7934V21.5206H79.041V12.8856H72.3348L71.9592 17.7875ZM67.8144 16.0606C67.6003 14.9792 66.7624 14.3164 65.5135 14.3164C64.3362 14.3164 63.4445 15.0838 63.1234 16.0606H67.8144ZM65.5845 12.6416C68.1171 12.6416 69.9006 14.4384 69.9006 16.9674V17.7349H63.0873C63.2298 19.0604 64.1931 19.8978 65.5129 19.8978C66.708 19.8978 67.2071 19.3918 67.7599 18.7117L69.5434 19.5838C68.6517 21.0666 67.4211 21.7814 65.4768 21.7814C63.0157 21.7814 60.9289 19.9499 60.9289 17.2115C60.9295 14.4731 63.0163 12.6416 65.5845 12.6416ZM87.1827 16.0606C86.9687 14.9792 86.1302 14.3164 84.8819 14.3164C83.7045 14.3164 82.8128 15.0838 82.4917 16.0606H87.1827ZM84.9528 12.6416C87.4855 12.6416 89.2689 14.4384 89.2689 16.9674V17.7349H82.4556C82.5981 19.0604 83.5614 19.8978 84.8813 19.8978C86.0763 19.8978 86.576 19.3918 87.1283 18.7117L88.9118 19.5838C88.02 21.0666 86.7895 21.7814 84.8452 21.7814C82.3841 21.7814 80.2973 19.9499 80.2973 17.2115C80.2979 14.4731 82.3847 12.6416 84.9528 12.6416ZM52.7964 14.8045H55.4361V21.5374H57.6831V14.8045H60.3228V12.8856H52.7964V14.8045ZM103.285 19.7238C104.604 19.7238 105.835 18.799 105.835 17.2121C105.835 15.6246 104.604 14.7004 103.285 14.7004C101.965 14.7004 100.734 15.6252 100.734 17.2121C100.734 18.799 101.965 19.7238 103.285 19.7238ZM103.285 12.6416C105.71 12.6416 108.118 14.1764 108.118 17.2121C108.118 20.2478 105.71 21.782 103.285 21.782C100.859 21.782 98.451 20.2472 98.451 17.2121C98.451 14.177 100.859 12.6416 103.285 12.6416ZM117.06 12.8838L114.621 18.9432L112.182 12.8838H109.244V21.52H111.38V16.0529L113.748 21.52H115.493L117.862 16.0529V21.52H119.998V12.8838H117.06Z" fill="black"/>
<path d="M26.2967 24.1748V24.9823H24.4949V29.8848H23.594V24.9823H21.8008V24.1748H26.2967ZM26.4129 27.3809C26.5548 26.8181 27.0386 26.3856 27.6722 26.3856C28.3058 26.3856 28.8067 26.7445 28.8734 27.3809H26.4129ZM27.6722 29.2735C26.9462 29.2735 26.4545 28.7597 26.3958 28.0419H29.6985V27.7482C29.6985 26.5657 28.8979 25.7252 27.6967 25.7252C26.512 25.7252 25.5616 26.598 25.5616 27.8619C25.5616 29.1347 26.512 29.9991 27.6551 29.9991C28.5725 29.9991 29.1394 29.6234 29.5235 28.9876L28.8483 28.6371C28.5817 28.996 28.3144 29.2735 27.6722 29.2735ZM32.351 25.8395L31.5584 27.0711L30.7663 25.8395H29.7902L31.0911 27.7398L29.581 29.8854H30.5822L31.5577 28.3924L32.5253 29.8854H33.5179L32.0666 27.7159L33.3345 25.8395H32.351ZM36.5955 25.8395V27.4138H34.669V25.8395H33.8097V29.8854H34.669V28.1478H36.5955V29.8854H37.4542V25.8395H36.5955ZM41.5826 27.8619C41.5826 28.6939 40.9655 29.2239 40.2481 29.2239C39.5221 29.2239 38.905 28.6939 38.905 27.8619C38.905 27.0298 39.5221 26.4999 40.2481 26.4999C40.9655 26.4999 41.5826 27.0298 41.5826 27.8619ZM40.2481 29.9991C41.374 29.9991 42.4584 29.2568 42.4584 27.8619C42.4584 26.467 41.374 25.7252 40.2481 25.7252C39.1135 25.7252 38.0298 26.4676 38.0298 27.8619C38.0291 29.2574 39.1135 29.9991 40.2481 29.9991ZM42.5581 29.8854C42.5581 29.8854 42.7251 29.9429 42.9 29.9429C43.7257 29.9429 44.0259 29.4368 44.0847 28.2788L44.1764 26.5986H45.6443V29.886H46.5036V25.8401H43.426L43.2926 28.2465C43.2425 29.0295 43.1177 29.1928 42.8504 29.1928C42.667 29.1928 42.5587 29.1437 42.5587 29.1437V29.8854H42.5581ZM50.6307 27.8619C50.6307 28.6939 50.0136 29.2239 49.2962 29.2239C48.5702 29.2239 47.9531 28.6939 47.9531 27.8619C47.9531 27.0298 48.5702 26.4999 49.2962 26.4999C50.0136 26.4999 50.6307 27.0298 50.6307 27.8619ZM49.2962 29.9991C50.4221 29.9991 51.5065 29.2568 51.5065 27.8619C51.5065 26.467 50.4221 25.7252 49.2962 25.7252C48.1616 25.7252 47.0779 26.4676 47.0779 27.8619C47.0779 29.2574 48.1622 29.9991 49.2962 29.9991ZM52.0814 25.8395V29.8854H52.9401V26.598H54.7749V25.8395H52.0814ZM58.1443 25.8395L56.1676 28.7597V25.8395H55.3419V29.8854H56.2514L58.2281 26.9652V29.8854H59.0537V25.8395H58.1443ZM62.631 25.8395L60.6543 28.7597V25.8395H59.8286V29.8854H60.7375L62.7142 26.9652V29.8854H63.5399V25.8395H62.631ZM67.259 29.2245V28.1071H68.2847C68.7269 28.1071 68.952 28.3189 68.952 28.6616C68.952 29.0044 68.7263 29.2245 68.2847 29.2245H67.259ZM67.259 27.4545V26.4999H68.2346C68.6101 26.4999 68.8431 26.647 68.8431 26.973C68.8431 27.3074 68.6095 27.4539 68.226 27.4539H67.259V27.4545ZM66.4083 29.8854H68.3349C69.2021 29.8854 69.8113 29.4039 69.8113 28.719C69.8113 28.1968 69.4694 27.8792 69.0358 27.7482C69.4113 27.5849 69.6614 27.308 69.6614 26.8426C69.6614 26.2881 69.1691 25.8395 68.2847 25.8395H66.4083V29.8854ZM73.6473 27.8619C73.6473 28.6939 73.0302 29.2239 72.3127 29.2239C71.5874 29.2239 70.9703 28.6939 70.9703 27.8619C70.9703 27.0298 71.5874 26.4999 72.3127 26.4999C73.0302 26.4999 73.6473 27.0298 73.6473 27.8619ZM72.3127 29.9991C73.4387 29.9991 74.5231 29.2568 74.5231 27.8619C74.5231 26.467 73.4393 25.7252 72.3127 25.7252C71.1788 25.7252 70.0945 26.4676 70.0945 27.8619C70.0938 29.2574 71.1782 29.9991 72.3127 29.9991ZM78.2839 28.7107C78.2839 28.1968 77.9255 27.887 77.4166 27.7482C77.8588 27.5849 78.1175 27.2751 78.1175 26.8103C78.1175 26.1984 77.6502 25.7252 76.6081 25.7252C75.6154 25.7252 75.0313 26.2229 75.0313 26.8587C75.0313 27.0382 75.0729 27.1692 75.1066 27.2505L75.8405 27.0137C75.8325 26.9808 75.8154 26.9323 75.8154 26.8426C75.8154 26.598 76.1072 26.394 76.5995 26.394C77.0668 26.394 77.3083 26.5896 77.3083 26.8917C77.3083 27.2015 77.0827 27.4384 76.5744 27.4384H76.2405V28.1155H76.5903C77.1328 28.1155 77.4411 28.3278 77.4411 28.6867C77.4411 29.0618 77.1243 29.3309 76.5402 29.3309C76.1065 29.3309 75.698 29.127 75.698 28.7274C75.698 28.6377 75.7145 28.5725 75.7396 28.5151L75.0136 28.2788C74.972 28.3685 74.9139 28.548 74.9139 28.7358C74.9139 29.4619 75.5059 30.0003 76.5402 30.0003C77.6753 29.9997 78.2839 29.4368 78.2839 28.7107ZM82.4373 25.8395L81.2196 28.9146L80.0019 25.8395H78.8343V29.8854H79.66V27.0143L80.8612 29.8854H81.5865L82.7792 27.022V29.8854H83.6134V25.8395H82.4373ZM87.7405 27.8619C87.7405 28.6939 87.1234 29.2239 86.406 29.2239C85.6806 29.2239 85.0635 28.6939 85.0635 27.8619C85.0635 27.0298 85.6806 26.4999 86.406 26.4999C87.1234 26.4999 87.7405 27.0298 87.7405 27.8619ZM86.406 29.9991C87.532 29.9991 88.6163 29.2568 88.6163 27.8619C88.6163 26.467 87.532 25.7252 86.406 25.7252C85.2715 25.7252 84.1877 26.4676 84.1877 27.8619C84.1877 29.2574 85.2715 29.9991 86.406 29.9991ZM93.4615 25.8395L92.1441 27.4061V25.8395H91.2848V27.4138L89.9668 25.8395H88.8573L90.5588 27.7398L88.8322 29.8854H89.8744L91.2842 28.0987V29.8854H92.1435V28.1155L93.5532 29.8854H94.5954L92.8688 27.7398L94.5703 25.8395H93.4615ZM97.8229 25.8395V27.4138H95.8963V25.8395H95.037V29.8854H95.8963V28.1478H97.8229V29.8854H98.6815V25.8395H97.8229ZM102.81 27.8619C102.81 28.6939 102.193 29.2239 101.475 29.2239C100.75 29.2239 100.133 28.6939 100.133 27.8619C100.133 27.0298 100.75 26.4999 101.475 26.4999C102.192 26.4999 102.81 27.0298 102.81 27.8619ZM101.475 29.9991C102.601 29.9991 103.686 29.2568 103.686 27.8619C103.686 26.467 102.601 25.7252 101.475 25.7252C100.341 25.7252 99.2571 26.4676 99.2571 27.8619C99.2571 29.2574 100.341 29.9991 101.475 29.9991ZM106.17 29.9991C107.037 29.9991 107.621 29.5995 108.013 28.9469L107.321 28.5635C107.054 28.9469 106.746 29.2161 106.17 29.2161C105.436 29.2161 104.902 28.6939 104.902 27.8619C104.902 27.0298 105.461 26.5076 106.17 26.5076C106.612 26.5076 106.996 26.7116 107.272 27.1518L107.988 26.7439C107.688 26.1075 107.062 25.7246 106.17 25.7246C105.011 25.7246 104.018 26.589 104.018 27.8613C104.018 29.1347 104.944 29.9991 106.17 29.9991ZM108.088 25.8395V26.598H109.389V29.8854H110.248V26.598H111.541V25.8395H108.088ZM112.425 27.3809C112.567 26.8181 113.051 26.3856 113.684 26.3856C114.318 26.3856 114.819 26.7445 114.885 27.3809H112.425ZM113.684 29.2735C112.959 29.2735 112.467 28.7597 112.408 28.0419H115.711V27.7482C115.711 26.5657 114.911 25.7252 113.709 25.7252C112.525 25.7252 111.574 26.598 111.574 27.8619C111.574 29.1347 112.525 29.9991 113.668 29.9991C114.585 29.9991 115.153 29.6234 115.536 28.9876L114.861 28.6371C114.593 28.996 114.326 29.2735 113.684 29.2735ZM117.236 24.3872C117.236 24.901 117.595 25.2682 118.137 25.2682C118.679 25.2682 119.046 24.901 119.046 24.3872H118.462C118.462 24.5911 118.345 24.7377 118.137 24.7377C117.937 24.7377 117.82 24.5911 117.82 24.3872H117.236ZM116.286 29.8854H117.195L119.172 26.9652V29.8854H119.997V25.8395H119.088L117.112 28.7597V25.8395H116.286V29.8854Z" fill="black"/>
<path d="M14.5973 29.908H2.11927C1.21776 29.908 0.6875 29.1202 0.6875 28.4317C0.6875 28.0244 0.856303 27.6553 1.12969 27.3879L6.57482 22.0625L14.5973 29.908Z" fill="#FF4F12"/>
<path d="M2.12163 29.908C1.17915 29.908 0.00180495 29.1711 0.00180495 27.7062V11.3004C0.00180495 9.08366 -0.113788 7.52426 1.50513 5.94093L7.579 0L18.35 10.5509L1.13266 27.3886C0.859277 27.6559 0.690473 28.0244 0.690473 28.4323C0.690473 29.1208 1.22013 29.908 2.12163 29.908Z" fill="#7700FF"/>
</svg>
