<svg width="63" height="50" viewBox="0 0 63 50" fill="none" xmlns="http://www.w3.org/2000/svg">
<path d="M28.5473 49.0002C25.6202 49.0002 23.6554 47.2899 23.6554 44.7421C23.6554 42.1944 25.6202 40.4833 28.5473 40.4833C31.4733 40.4833 33.4398 42.1944 33.4398 44.7421C33.4398 47.2899 31.4733 49.0002 28.5473 49.0002ZM28.5473 39.4844C23.5494 39.4844 21.7773 42.3158 21.7773 44.7421C21.7773 47.1673 23.5494 49.9991 28.5473 49.9991C33.5447 49.9991 35.3179 47.1673 35.3179 44.7421C35.3179 42.3158 33.5447 39.4844 28.5473 39.4844V39.4844Z" fill="white"/>
<path d="M38.5651 41.3313V39.6844H36.9727L36.9743 49.7236H38.6792V44.764L38.6759 44.6998C38.6792 42.8501 39.4143 40.6394 42.9175 40.6394L43.4499 40.6573L43.4565 40.618L43.5417 39.4471L43.3434 39.4463C40.9772 39.4463 39.3738 40.0829 38.5651 41.3313Z" fill="white"/>
<path d="M55.1802 48.9623C51.2298 48.9623 50.8022 45.9841 50.8022 44.7038C50.8022 43.4228 51.2298 40.445 55.1802 40.445C58.204 40.445 59.5583 42.5834 59.5583 44.7038C59.5583 46.8239 58.204 48.9623 55.1802 48.9623ZM61.1939 34.5787L59.5583 34.9355V41.1424C59.2023 40.7178 57.872 39.4192 54.893 39.4457C49.9612 39.4901 48.9258 42.3289 48.9258 44.7038C48.9258 47.9462 51.2123 49.9616 54.8941 49.9616C57.0861 49.9616 58.5693 49.386 59.5583 48.1665V49.7234H61.2627V34.5635L61.1939 34.5787V34.5787Z" fill="white"/>
<path d="M46.957 34.5794L45.3203 34.9347V49.7234H47.0258V34.5635L46.957 34.5794Z" fill="white"/>
<path d="M1.83052 39.6846H0L0.0229361 39.7348C0.110312 39.9239 4.61126 49.6094 4.65385 49.6973L4.66587 49.7242H6.77162C6.77162 49.7242 10.7303 41.0334 10.7538 40.9804H10.8843C10.9089 41.0334 14.8675 49.7242 14.8675 49.7242H16.9744L21.7544 39.6846H20.0544C20.0544 39.6846 16.0384 48.3758 16.0132 48.4275H15.8833C15.8603 48.3754 12.0158 39.6846 12.0158 39.6846H9.9095C9.9095 39.6846 5.86455 48.3758 5.83943 48.4275H5.71001C5.68707 48.3742 1.86984 39.6846 1.86984 39.6846H1.83052V39.6846Z" fill="white"/>
</svg>
