<svg width="33" height="32" viewBox="0 0 33 32" fill="none" xmlns="http://www.w3.org/2000/svg">
<path d="M25.5446 10.8548C25.555 11.0661 25.5589 11.28 25.5589 11.4913C25.5589 18 20.6063 25.5026 11.5502 25.5026C8.76804 25.5026 6.18152 24.6874 4.00195 23.2891C5.29114 23.445 6.59841 23.3453 7.84905 22.9958C9.09968 22.6462 10.2692 22.0535 11.2906 21.2517C10.2634 21.2323 9.26783 20.8924 8.44323 20.2794C7.61863 19.6665 7.00618 18.8111 6.69152 17.833C7.42986 17.9711 8.18975 17.9422 8.91543 17.7483C7.80101 17.5223 6.799 16.918 6.07919 16.0377C5.35938 15.1574 4.96605 14.0554 4.96587 12.9183V12.857C5.6496 13.2373 6.4143 13.4488 7.1963 13.4739C6.15266 12.7782 5.41388 11.7103 5.13076 10.4884C4.84764 9.26647 5.04151 7.98255 5.67282 6.8987C6.90907 8.42017 8.45154 9.66457 10.2001 10.5511C11.9486 11.4376 13.864 11.9464 15.822 12.0444C15.7372 11.676 15.6948 11.2992 15.6954 10.9213C15.6954 10.2749 15.8228 9.63487 16.0702 9.03771C16.3176 8.44054 16.6802 7.89796 17.1373 7.44096C17.5944 6.98396 18.1371 6.62149 18.7343 6.37424C19.3316 6.127 19.9717 5.99984 20.618 6.00001C21.2917 5.99891 21.9584 6.13623 22.5767 6.40346C23.1951 6.67069 23.752 7.06212 24.2128 7.55348C25.3152 7.33526 26.3724 6.93125 27.3393 6.3587C26.9716 7.49897 26.2021 8.46682 25.1741 9.08218C26.1501 8.96648 27.1033 8.70532 28.002 8.3074C27.3418 9.29666 26.5095 10.1595 25.5446 10.8548Z" fill="#2AA84A"/>
</svg>
