<svg width="33" height="32" viewBox="0 0 33 32" fill="none" xmlns="http://www.w3.org/2000/svg">
<path fill-rule="evenodd" clip-rule="evenodd" d="M25.3645 18.618C25.3645 18.618 27.3049 20.5344 27.7849 21.4212C27.7942 21.434 27.8015 21.4482 27.8065 21.4632C28.0021 21.7908 28.0501 22.0476 27.9541 22.2372C27.7921 22.5504 27.2437 22.7076 27.0577 22.7208H23.6281C23.3893 22.7208 22.8925 22.6584 22.2877 22.2408C21.8257 21.918 21.3661 21.3864 20.9209 20.8668C20.2561 20.0952 19.6813 19.4256 19.0993 19.4256C19.0258 19.4255 18.9528 19.4376 18.8833 19.4616C18.4429 19.6008 17.8837 20.2284 17.8837 21.9C17.8837 22.4232 17.4709 22.7208 17.1817 22.7208H15.6109C15.0757 22.7208 12.2893 22.5336 9.81847 19.9284C6.79086 16.7388 4.07166 10.3404 4.04526 10.284C3.87606 9.87 4.23126 9.6444 4.61526 9.6444H8.07847C8.54287 9.6444 8.69407 9.9252 8.79967 10.1772C8.92207 10.4664 9.37567 11.6232 10.1197 12.9228C11.3245 15.0372 12.0649 15.8976 12.6565 15.8976C12.7676 15.8979 12.8769 15.869 12.9733 15.8136C13.7461 15.3888 13.6021 12.6288 13.5661 12.06C13.5661 11.9496 13.5649 10.8276 13.1689 10.2852C12.8857 9.8964 12.4033 9.7452 12.1117 9.69C12.1897 9.5772 12.3553 9.4044 12.5677 9.3024C13.0969 9.0384 14.0533 9 15.0025 9H15.5293C16.5589 9.0144 16.8253 9.0804 17.1997 9.1752C17.9533 9.3552 17.9677 9.8436 17.9017 11.5068C17.8825 11.982 17.8621 12.5172 17.8621 13.1472C17.8621 13.2816 17.8561 13.4316 17.8561 13.584C17.8333 14.4372 17.8033 15.3984 18.4057 15.7932C18.4838 15.8419 18.574 15.8677 18.6661 15.8676C18.8749 15.8676 19.5001 15.8676 21.1957 12.9576C21.9397 11.6724 22.5157 10.1568 22.5553 10.0428C22.5889 9.9792 22.6897 9.8004 22.8121 9.7284C22.8992 9.68207 22.9967 9.65893 23.0953 9.6612H27.1693C27.6133 9.6612 27.9145 9.7284 27.9733 9.8964C28.0717 10.1688 27.9541 11.0004 26.0941 13.5156C25.7809 13.9344 25.5061 14.2968 25.2649 14.6136C23.5789 16.8264 23.5789 16.938 25.3645 18.618Z" fill="#2AA84A"/>
</svg>
