<svg width="264" height="94" viewBox="0 0 264 94" fill="none" xmlns="http://www.w3.org/2000/svg">
<g clip-path="url(#clip0_1058_9391)">
<path d="M167.885 24.1049V61.1457C167.885 61.4116 167.779 61.6666 167.59 61.8546C167.401 62.0426 167.144 62.1482 166.877 62.1482H159.258C158.99 62.1482 158.734 62.0426 158.545 61.8546C158.356 61.6666 158.25 61.4116 158.25 61.1457V24.1049C158.25 23.839 158.356 23.584 158.545 23.3961C158.734 23.2081 158.99 23.1024 159.258 23.1024H166.877C167.144 23.1024 167.401 23.2081 167.59 23.3961C167.779 23.584 167.885 23.839 167.885 24.1049V24.1049ZM227.169 23.1024H218.654C218.439 23.1014 218.229 23.1696 218.056 23.2967C217.884 23.4239 217.757 23.6032 217.695 23.8079L210.985 45.6883L203.515 23.7831C203.447 23.5841 203.318 23.4113 203.146 23.2892C202.974 23.167 202.768 23.1017 202.557 23.1024H196.618C196.407 23.1017 196.201 23.167 196.029 23.2892C195.857 23.4113 195.728 23.5841 195.66 23.7831L188.252 45.6883L181.517 23.8079C181.451 23.6032 181.322 23.4247 181.147 23.2979C180.973 23.1711 180.762 23.1027 180.546 23.1024H172.031C171.871 23.101 171.713 23.1372 171.571 23.2082C171.428 23.2792 171.304 23.383 171.209 23.5108C171.117 23.6403 171.057 23.7895 171.033 23.9464C171.009 24.1033 171.022 24.2635 171.072 24.4143L183.522 61.4675C183.593 61.6665 183.725 61.8387 183.899 61.9605C184.073 62.0823 184.28 62.1479 184.493 62.1482H191.24C191.453 62.1497 191.661 62.0848 191.836 61.9628C192.01 61.8407 192.141 61.6675 192.211 61.4675L199.544 39.8222L206.877 61.4675C206.944 61.6665 207.073 61.8393 207.245 61.9615C207.417 62.0836 207.624 62.1489 207.835 62.1482H214.72C214.931 62.1489 215.137 62.0836 215.309 61.9615C215.481 61.8393 215.61 61.6665 215.678 61.4675L228.128 24.4143C228.177 24.2629 228.189 24.102 228.164 23.9448C228.138 23.7877 228.075 23.6389 227.981 23.5107C227.886 23.3825 227.761 23.2786 227.618 23.2076C227.475 23.1366 227.317 23.1006 227.156 23.1024H227.169ZM239.979 23.1024H232.373C232.104 23.1024 231.846 23.2076 231.655 23.3953C231.464 23.5829 231.355 23.8379 231.352 24.1049V61.1457C231.355 61.4127 231.464 61.6677 231.655 61.8553C231.846 62.043 232.104 62.1482 232.373 62.1482H239.979C240.247 62.1482 240.503 62.0426 240.692 61.8546C240.881 61.6666 240.988 61.4116 240.988 61.1457V24.1049C240.988 23.8412 240.883 23.588 240.697 23.4004C240.51 23.2127 240.257 23.1057 239.992 23.1024H239.979ZM153.842 60.8735C153.93 60.9853 153.984 61.1189 154 61.2595C154.016 61.4002 153.992 61.5424 153.931 61.6705C153.871 61.7986 153.776 61.9076 153.657 61.9853C153.538 62.0631 153.4 62.1066 153.257 62.1111H143.933C143.745 62.1136 143.559 62.0736 143.388 61.9943C143.218 61.915 143.068 61.7984 142.949 61.6532L141.368 59.7597C137.109 62.5183 131.974 63.6143 126.951 62.8369C121.928 62.0595 117.372 59.4636 114.158 55.5483C110.944 51.633 109.299 46.6748 109.54 41.627C109.782 36.5793 111.891 31.7983 115.464 28.2034C119.037 24.6086 123.821 22.4537 128.895 22.153C133.969 21.8523 138.977 23.4272 142.954 26.5747C146.931 29.7222 149.597 34.2202 150.439 39.2038C151.282 44.1874 150.242 49.3047 147.518 53.5717L153.842 60.8735ZM135.355 52.6188L131.309 47.7427C131.225 47.6281 131.175 47.4929 131.162 47.3517C131.15 47.2105 131.177 47.0686 131.239 46.9414C131.302 46.8141 131.399 46.7062 131.518 46.6294C131.638 46.5525 131.777 46.5096 131.919 46.5051H140.472C140.886 45.2675 141.1 43.9727 141.107 42.6686C141.177 41.2063 140.948 39.745 140.434 38.3732C139.919 37.0014 139.13 35.7477 138.114 34.6881C137.098 33.6284 135.876 32.7848 134.522 32.2085C133.169 31.6321 131.711 31.3349 130.239 31.3349C128.766 31.3349 127.308 31.6321 125.955 32.2085C124.601 32.7848 123.379 33.6284 122.363 34.6881C121.347 35.7477 120.558 37.0014 120.043 38.3732C119.529 39.745 119.3 41.2063 119.37 42.6686C119.324 44.1246 119.569 45.5752 120.093 46.9359C120.616 48.2966 121.406 49.5402 122.418 50.5942C123.429 51.6481 124.642 52.4914 125.985 53.0749C127.327 53.6583 128.773 53.9703 130.239 53.9925C132.035 53.9795 133.797 53.5064 135.355 52.6188ZM86.2427 60.6878C86.4792 62.2348 85.9812 62.866 85.4957 62.866C85.0102 62.866 84.2508 62.2472 83.4789 61.0096C83.1073 60.5507 82.8486 60.0119 82.7233 59.4362C82.5979 58.8604 82.6094 58.2635 82.7568 57.6929C82.9006 57.4454 83.1355 57.2631 83.412 57.1846C83.6884 57.1061 83.9847 57.1375 84.2383 57.2721C85.5953 57.7671 86.1057 59.772 86.2427 60.6878ZM79.0221 64.0541C80.5907 65.3783 81.0762 66.95 80.267 68.0638C80.0126 68.3741 79.6887 68.6207 79.3212 68.7841C78.9537 68.9474 78.5528 69.0229 78.1506 69.0044C77.2679 69.0084 76.4122 68.7015 75.7354 68.1381C74.3038 66.9005 73.8805 64.8833 74.8266 63.7323C75.0307 63.5182 75.2785 63.35 75.5533 63.239C75.8282 63.128 76.1237 63.0768 76.4201 63.0888C77.3749 63.0953 78.2965 63.4372 79.0221 64.0541V64.0541ZM76.333 76.8383C83.1179 76.8383 90.4879 79.1526 98.6422 86.3429C99.4638 87.0607 100.547 86.1697 99.8871 85.2662C91.8697 75.2171 84.4624 73.2988 77.0675 71.6528C68.0293 69.6727 63.3733 64.611 60.1364 59.0666C59.4891 57.9528 59.2027 58.1508 59.1405 59.574C59.072 61.6835 59.2222 63.7944 59.5887 65.8733H58.4807C53.843 65.8831 49.3068 64.5245 45.4465 61.9695C41.5861 59.4146 38.5754 55.7782 36.7955 51.521C35.0156 47.2637 34.5467 42.5772 35.4482 38.0548C36.3496 33.5325 38.5808 29.3778 41.8593 26.117C45.1377 22.8562 49.3159 20.6359 53.8646 19.7374C58.4133 18.8389 63.1279 19.3025 67.4114 21.0696C71.6948 22.8367 75.3544 25.8277 77.9266 29.6639C80.4988 33.5001 81.8679 38.0089 81.8605 42.6191C81.8611 43.5246 81.8112 44.4294 81.7111 45.3294C79.2335 45.0156 76.729 44.9699 74.2415 45.1933C73.3576 45.2676 73.4821 45.676 74.1544 45.7997C81.8978 47.1858 87.2137 51.9876 88.4337 60.6507C88.4398 60.693 88.4586 60.7324 88.4877 60.7637C88.5168 60.7951 88.5548 60.8169 88.5967 60.8263C88.6385 60.8357 88.6823 60.8322 88.7221 60.8164C88.7619 60.8005 88.796 60.7729 88.8197 60.7373C92.8447 54.067 94.5353 46.2596 93.6277 38.5337C92.7201 30.8077 89.2654 23.5977 83.8025 18.0288C78.3397 12.4599 71.176 8.84529 63.4295 7.74905C55.6829 6.65281 47.7892 8.13661 40.9801 11.9689C34.171 15.8012 28.8296 21.7664 25.7893 28.9337C22.749 36.101 22.1809 44.0671 24.1736 51.5891C26.1664 59.1111 30.6078 65.7658 36.8049 70.5147C43.0021 75.2636 50.6062 77.8396 58.4309 77.8407C63.6223 77.8407 68.7763 76.8383 76.333 76.8383Z" fill="#F78800"/>
</g>
<defs>
<clipPath id="clip0_1058_9391">
<rect width="218" height="79.2053" fill="white" transform="translate(23 7.39746)"/>
</clipPath>
</defs>
</svg>
