<svg width="264" height="94" viewBox="0 0 264 94" fill="none" xmlns="http://www.w3.org/2000/svg">
<path d="M23.0005 47.4028H62.8503V26.8386H23.0005V47.4028V47.4028Z" fill="#EE293D"/>
<path d="M23.0005 67.1611H62.8532V46.9999H23.0005V67.1611V67.1611Z" fill="#231F20"/>
<path d="M29.9502 48.2275H55.8784V45.7734H29.9502V48.2275V48.2275Z" fill="white"/>
<path d="M88.2743 36.9072C92.6107 36.9072 95.3333 39.7751 95.3333 43.7381C95.3333 47.8648 92.6107 50.2411 88.2743 50.2411H79.6486V56.9868H75.9736V36.9072H88.2743ZM88.4847 46.922C90.3882 46.922 91.5803 45.5873 91.5803 43.7918C91.5803 41.8118 90.3882 40.23 88.2743 40.23H79.6486V46.922H88.4847" fill="#231F20"/>
<path d="M108.964 57.5474C102.644 57.5474 97.4058 53.294 97.4058 46.9213C97.4058 40.6312 102.644 36.2934 108.964 36.2934C115.314 36.2934 120.468 40.6312 120.468 46.9213C120.468 53.294 115.314 57.5474 108.964 57.5474V57.5474ZM108.964 39.7218C104.359 39.7218 101.211 42.8788 101.211 46.9213C101.211 51.0721 104.228 54.1468 108.964 54.1468C113.673 54.1468 116.658 51.0462 116.658 46.9213C116.658 42.8788 113.673 39.7218 108.964 39.7218Z" fill="#231F20"/>
<path d="M135.699 57.5234C129.058 57.5234 124.058 53.2664 124.058 46.8967C124.058 40.6314 129.134 36.2936 135.699 36.2936C139.616 36.2936 142.416 37.4209 144.933 39.2897L142.969 42.2391C141.146 40.816 138.846 39.7746 135.806 39.7746C130.961 39.7746 127.947 42.8789 127.947 46.8967C127.947 51.0464 130.99 54.0395 135.857 54.0395C138.897 54.0395 141.304 53.0493 143.13 51.6354L145.087 54.5785C142.576 56.4511 139.616 57.5234 135.699 57.5234" fill="#231F20"/>
<path d="M176.861 52.1143L174.587 56.9893H170.617L180.271 36.9077H184.13L193.815 56.9893H189.846L187.573 52.1143H176.861V52.1143ZM178.394 48.85H186.042L182.23 40.7103L178.394 48.85Z" fill="#231F20"/>
<path d="M213.283 56.9868V48.3963H200.297V56.9868H196.619V36.9072H200.297V45.1032H213.283V36.9072H216.962V56.9868H213.283" fill="#231F20"/>
<path d="M222.406 56.9868V36.9072H226.088V46.2775L236.057 36.9072H240.574L230.318 46.5756L240.999 56.9868H236.057L226.088 47.2424V56.9868H222.406" fill="#231F20"/>
<path d="M161.533 44.2695H152.918V40.0361H167.111V36.8911H149.24V56.9541H161.533C165.865 56.9541 168.85 54.5703 168.85 50.6122C168.85 46.4936 165.865 44.2695 161.533 44.2695ZM161.745 53.635H152.918V47.5912H161.745C164.049 47.5912 165.359 48.8211 165.359 50.6122C165.359 52.5903 164.318 53.635 161.745 53.635Z" fill="#231F20"/>
</svg>
