<svg width="264" height="94" viewBox="0 0 264 94" fill="none" xmlns="http://www.w3.org/2000/svg">
<g clip-path="url(#clip0_1058_9388)">
<path fill-rule="evenodd" clip-rule="evenodd" d="M111.329 18.9326C110.485 20.7176 109.765 22.2905 109.002 23.8434C105.491 30.9747 102.012 38.1203 98.4275 45.2129C97.547 46.9549 97.5187 48.4133 98.4091 50.1811C102.462 58.2177 106.397 66.3146 110.366 74.3913C110.668 75.0073 110.927 75.6491 111.308 76.5001H23V18.9326H111.329ZM101.284 25.2015H29.1832V70.1467H101.202C100.773 69.1954 100.452 68.4319 100.087 67.6912C97.2129 61.8135 94.3818 55.9127 91.4232 50.0793C90.5668 48.3889 90.5739 46.965 91.4374 45.3061C93.2876 41.7504 95.0046 38.1232 96.7656 34.5189C98.2378 31.5019 99.693 28.4821 101.284 25.2015" fill="#AD475C"/>
<path fill-rule="evenodd" clip-rule="evenodd" d="M52.2226 62.8945L45.0796 52.9783H43.6867V62.8945H35.8062V31.6933H48.1316C51.529 31.6933 54.2653 32.5299 56.3419 34.2046C58.4171 35.8807 59.4986 38.4665 59.585 41.9619C59.585 47.4873 57.5664 50.8925 53.5306 52.1861L61.9363 62.8959H52.2254L52.2226 62.8945ZM43.6867 46.1908H48.259C49.7963 46.1908 50.8849 45.5978 51.5233 44.4073C52.1603 43.2183 52.1603 42.0264 51.5233 40.8374C50.8863 39.6483 49.7963 39.0538 48.2576 39.0538H43.6852V46.1937V46.1908H43.6867ZM86.9014 41.2084C86.873 42.0622 86.5928 42.9905 86.052 43.9876C85.5255 44.9745 84.7128 45.7744 83.7234 46.2797C85.6103 47.2481 86.8716 48.5431 87.5072 50.1605C88.1485 51.7778 88.3368 53.335 88.0749 54.8306C87.2326 60.2099 83.5748 62.8959 77.0999 62.8959H64.5126V31.6919H76.8833C79.9013 31.6919 82.3474 32.5514 84.2202 34.2705C86.0945 35.9867 86.9905 38.2989 86.9028 41.2113L86.9014 41.2084ZM72.3549 43.8987H76.8847C78.0767 43.8987 78.926 43.4346 79.437 42.5092C79.9424 41.5823 79.9509 40.6612 79.4568 39.7329C78.9671 38.8031 78.1106 38.3433 76.889 38.3433H72.3591V43.8987H72.3549ZM72.3549 55.9752H76.8847C78.3654 55.9752 79.4045 55.4409 80.0018 54.365C80.5964 53.2963 80.5921 52.2276 79.9834 51.1704C79.3677 50.1103 78.3371 49.5831 76.8876 49.5831H72.3577V55.9767L72.3549 55.9752Z" fill="#AD475C"/>
<path d="M122.423 57.8797L117.214 50.6453H116.197V57.8797H110.45V35.125H119.439C121.916 35.125 123.912 35.7352 125.427 36.9558C126.942 38.1777 127.729 40.0644 127.791 42.6144C127.791 46.6427 126.319 49.1282 123.374 50.0709L129.507 57.8812H122.423V57.8797ZM116.195 45.6973H119.531C120.654 45.6973 121.448 45.2618 121.912 44.3965C122.379 43.5284 122.379 42.6602 121.912 41.7921C121.445 40.924 120.652 40.4913 119.531 40.4913H116.196V45.6973H116.195ZM136.079 35.125V50.2628C136.079 50.9504 136.303 51.5306 136.749 52.0148C137.192 52.4962 137.725 52.7884 138.353 52.8987C138.975 53.0062 139.608 53.0062 140.242 52.8987C140.879 52.7899 141.417 52.4976 141.863 52.0148C142.306 51.5306 142.531 50.949 142.531 50.2628V35.1235H148.279V50.2628C148.279 51.4203 148.073 52.4761 147.66 53.4288C147.285 54.3325 146.715 55.14 145.992 55.7925C145.268 56.4314 144.461 56.9664 143.593 57.3826C142.707 57.8193 141.748 58.0864 140.766 58.1705C139.782 58.2565 138.791 58.2565 137.796 58.1705C136.809 58.0864 135.846 57.8194 134.954 57.3826C134.09 56.9689 133.288 56.4335 132.573 55.7925C131.883 55.1736 131.338 54.3829 130.936 53.4288C130.533 52.4776 130.333 51.4203 130.333 50.2628V35.1235H136.081L136.079 35.125ZM150.218 54.0878L153.806 50.6783C154.231 51.2155 154.763 51.6667 155.41 52.0292C156.057 52.3916 156.698 52.6308 157.333 52.7354C157.97 52.8429 158.573 52.8686 159.142 52.8142C159.714 52.7612 160.189 52.585 160.571 52.2842C160.951 51.9862 161.152 51.5965 161.175 51.1267C161.196 50.525 160.823 50.035 160.062 49.6483C159.302 49.2615 158.391 48.9936 157.33 48.846C155.362 48.5223 153.714 47.7472 152.392 46.5138C151.07 45.2818 150.408 43.6487 150.408 41.6116C150.408 39.4914 151.206 37.8253 152.804 36.612C154.404 35.4014 156.315 34.7983 158.537 34.7983C161.694 34.7983 164.256 36.0089 166.227 38.4284L162.509 41.3222C161.787 40.5326 160.864 39.9596 159.841 39.6662C158.825 39.3768 157.94 39.3983 157.187 39.7306C156.437 40.063 156.049 40.6589 156.026 41.5156C156.091 42.4983 157.088 43.206 159.013 43.6358C159.925 43.8048 160.719 43.9882 161.394 44.1802C162.073 44.375 162.781 44.6672 163.522 45.0655C164.262 45.4623 164.861 45.9222 165.319 46.4465C165.772 46.9722 166.14 47.6584 166.414 48.5051C166.688 49.3503 166.803 50.3101 166.763 51.3802C166.71 52.7485 166.187 54.0553 165.285 55.0762C164.387 56.1344 163.241 56.9472 161.952 57.4399C160.649 57.9442 159.288 58.1992 157.871 58.1992C156.493 58.1992 155.124 57.8411 153.771 57.1348C152.418 56.4271 151.237 55.4114 150.221 54.0835L150.218 54.0878ZM185.188 42.0643C185.166 42.6874 184.962 43.3636 184.568 44.0914C184.185 44.8115 183.592 45.395 182.87 45.7632C184.246 46.4694 185.166 47.4135 185.63 48.5925C186.097 49.7715 186.234 50.9075 186.043 51.9991C185.429 55.9214 182.762 57.8812 178.04 57.8812H168.86V35.125H177.881C180.082 35.125 181.867 35.7524 183.232 37.0045C184.599 38.2565 185.252 39.9441 185.188 42.0671V42.0643ZM174.579 44.0269H177.883C178.752 44.0269 179.372 43.6874 179.744 43.0141C180.112 42.3379 180.118 41.6646 179.758 40.9884C179.401 40.3108 178.776 39.9756 177.885 39.9756H174.581V44.0269H174.579ZM174.579 52.8343H177.883C178.963 52.8343 179.72 52.4446 180.156 51.6596C180.589 50.8803 180.586 50.1009 180.142 49.3302C179.693 48.5566 178.941 48.1727 177.884 48.1727H174.581V52.8343H174.579ZM198.942 35.1235L206.978 57.8812H200.88L199.418 53.317H193.416L192.017 57.8826H185.916L193.764 35.1264H198.942V35.1235ZM194.685 48.2028H198.054L196.497 41.5514H196.337L194.687 48.2042L194.685 48.2028ZM206.692 54.0878L210.281 50.6783C210.705 51.2155 211.238 51.6667 211.885 52.0292C212.533 52.3916 213.173 52.6308 213.81 52.7354C214.444 52.8429 215.048 52.8686 215.618 52.8142C216.189 52.7612 216.665 52.585 217.047 52.2842C217.427 51.9862 217.628 51.5965 217.65 51.1267C217.672 50.525 217.299 50.035 216.538 49.6483C215.777 49.2615 214.867 48.9936 213.806 48.846C211.838 48.5223 210.19 47.7472 208.868 46.5138C207.545 45.2818 206.882 43.6487 206.882 41.6116C206.882 39.4914 207.68 37.8253 209.279 36.612C210.878 35.4014 212.789 34.7983 215.012 34.7983C218.168 34.7983 220.731 36.0089 222.701 38.4284L218.984 41.3222C218.261 40.5328 217.337 39.9599 216.314 39.6662C215.298 39.3768 214.413 39.3983 213.66 39.7306C212.91 40.063 212.522 40.6589 212.499 41.5156C212.564 42.4983 213.561 43.206 215.486 43.6358C216.398 43.8048 217.192 43.9882 217.867 44.1802C218.546 44.375 219.254 44.6672 219.994 45.0655C220.735 45.4623 221.334 45.9222 221.792 46.4465C222.245 46.9722 222.613 47.6584 222.887 48.5051C223.161 49.3503 223.276 50.3101 223.236 51.3802C223.183 52.7485 222.66 54.0553 221.758 55.0762C220.838 56.1506 219.724 56.9385 218.423 57.4399C217.121 57.9442 215.759 58.1992 214.342 58.1992C212.965 58.1992 211.596 57.8411 210.243 57.1348C208.891 56.4271 207.712 55.4114 206.694 54.0835L206.692 54.0878ZM231.09 40.5214V44.0598H240.206V49.0408H231.09V52.4475H241.002V57.8812H225.34V35.125H240.999V40.5257L231.086 40.5228L231.09 40.5214Z" fill="black"/>
</g>
<defs>
<clipPath id="clip0_1058_9388">
<rect width="218" height="59" fill="white" transform="translate(23 17.5)"/>
</clipPath>
</defs>
</svg>
