<svg width="148" height="54" viewBox="0 0 148 54" fill="none" xmlns="http://www.w3.org/2000/svg">
<g clip-path="url(#clip0_1915_8186)">
<path fill-rule="evenodd" clip-rule="evenodd" d="M59.9665 7.96973C59.3937 9.17988 58.9046 10.2463 58.3866 11.2991C56.0032 16.1339 53.641 20.9783 51.2077 25.7869C50.6099 26.9679 50.5907 27.9566 51.1952 29.1551C53.9466 34.6037 56.6183 40.0931 59.313 45.5689C59.5177 45.9865 59.6936 46.4216 59.9521 46.9985H0V7.96973H59.9665ZM53.147 12.2198H4.19779V42.6911H53.0913C52.8001 42.0462 52.5819 41.5285 52.334 41.0264C50.3831 37.0415 48.461 33.041 46.4525 29.0862C45.871 27.9401 45.8759 26.9747 46.4621 25.85C47.7182 23.4394 48.8839 20.9803 50.0794 18.5367C51.0789 16.4913 52.0668 14.4439 53.147 12.2198Z" fill="#AD475C"/>
<path fill-rule="evenodd" clip-rule="evenodd" d="M19.8394 37.7754L14.9901 31.0526H14.0444V37.7754H8.69434V16.6221H17.062C19.3685 16.6221 21.2262 17.1893 22.636 18.3246C24.0449 19.461 24.7791 21.214 24.8378 23.5838C24.8378 27.3298 23.4673 29.6385 20.7274 30.5155L26.434 37.7764H19.8414L19.8394 37.7754ZM14.0444 26.4509H17.1485C18.1922 26.4509 18.9313 26.0488 19.3647 25.2417C19.7971 24.4356 19.7971 23.6275 19.3647 22.8214C18.9322 22.0153 18.1922 21.6122 17.1476 21.6122H14.0434V26.4528V26.4509H14.0444ZM43.3828 23.073C43.3636 23.6518 43.1733 24.2812 42.8062 24.9571C42.4488 25.6262 41.897 26.1686 41.2253 26.5111C42.5064 27.1677 43.3626 28.0456 43.7941 29.1422C44.2295 30.2387 44.3573 31.2944 44.1795 32.3084C43.6077 35.9553 41.1244 37.7764 36.7286 37.7764H28.1831V16.6211H36.5816C38.6305 16.6211 40.2912 17.2038 41.5626 18.3693C42.835 19.5328 43.4434 21.1004 43.3838 23.0749L43.3828 23.073ZM33.5072 24.8969H36.5825C37.3917 24.8969 37.9684 24.5822 38.3153 23.9548C38.6584 23.3264 38.6641 22.7019 38.3287 22.0726C37.9962 21.4423 37.4148 21.1305 36.5854 21.1305H33.5101V24.8969H33.5072ZM33.5072 33.0844H36.5825C37.5878 33.0844 38.2932 32.7221 38.6987 31.9927C39.1024 31.2682 39.0995 30.5436 38.6862 29.8269C38.2682 29.1082 37.5686 28.7508 36.5845 28.7508H33.5092V33.0853L33.5072 33.0844Z" fill="#AD475C"/>
<path d="M67.498 34.375L63.9614 29.4703H63.2714V34.375H59.3696V18.948H65.4722C67.154 18.948 68.5091 19.3617 69.5374 20.1892C70.5657 21.0177 71.1 22.2968 71.1423 24.0256C71.1423 26.7567 70.1428 28.4417 68.1439 29.0808L72.307 34.3759H67.498V34.375ZM63.2695 26.1157H65.5347C66.2968 26.1157 66.8359 25.8204 67.1511 25.2338C67.4683 24.6452 67.4683 24.0567 67.1511 23.4681C66.834 22.8795 66.2958 22.5862 65.5347 22.5862H63.2705V26.1157H63.2695ZM76.7691 18.948V29.211C76.7691 29.6771 76.921 30.0705 77.2237 30.3988C77.5245 30.7251 77.8868 30.9232 78.3125 30.998C78.7354 31.0709 79.165 31.0709 79.5955 30.998C80.028 30.9242 80.3932 30.7261 80.6959 30.3988C80.9967 30.0705 81.1495 29.6762 81.1495 29.211V18.947H85.0513V29.211C85.0513 29.9957 84.912 30.7115 84.6313 31.3574C84.3767 31.97 83.9899 32.5175 83.4992 32.9599C83.0077 33.393 82.4596 33.7558 81.8703 34.038C81.2686 34.334 80.6179 34.5151 79.9511 34.5721C79.2832 34.6304 78.6105 34.6304 77.9349 34.5721C77.2646 34.5151 76.6105 34.334 76.0051 34.038C75.4187 33.7574 74.8745 33.3945 74.3886 32.9599C73.9206 32.5403 73.5506 32.0042 73.2777 31.3574C73.0038 30.7125 72.8683 29.9957 72.8683 29.211V18.947H76.7701L76.7691 18.948ZM86.3679 31.8041L88.8041 29.4926C89.0924 29.8568 89.4538 30.1628 89.893 30.4085C90.3322 30.6542 90.7675 30.8164 91.1981 30.8873C91.6305 30.9601 92.0399 30.9776 92.4263 30.9407C92.8145 30.9048 93.1374 30.7853 93.3969 30.5814C93.6545 30.3793 93.7909 30.1152 93.8063 29.7966C93.8207 29.3887 93.568 29.0565 93.0509 28.7943C92.5349 28.5321 91.9169 28.3504 91.1961 28.2504C89.8603 28.0309 88.7417 27.5055 87.8441 26.6693C86.9465 25.834 86.4967 24.7268 86.4967 23.3457C86.4967 21.9083 87.0387 20.7788 88.1237 19.9561C89.2097 19.1354 90.5071 18.7266 92.0159 18.7266C94.159 18.7266 95.8985 19.5472 97.2362 21.1877L94.7126 23.1495C94.2223 22.6142 93.5955 22.2257 92.901 22.0268C92.211 21.8306 91.6104 21.8452 91.0991 22.0705C90.5897 22.2958 90.3264 22.6999 90.311 23.2806C90.3552 23.9469 91.0318 24.4267 92.3388 24.7181C92.9577 24.8327 93.4969 24.957 93.9553 25.0871C94.4166 25.2192 94.8971 25.4173 95.3997 25.6873C95.9023 25.9564 96.3088 26.2681 96.6202 26.6236C96.9277 26.98 97.1776 27.4453 97.3631 28.0193C97.5495 28.5923 97.6274 29.243 97.6005 29.9685C97.5642 30.8962 97.2094 31.7821 96.5972 32.4743C95.9875 33.1917 95.2093 33.7427 94.3339 34.0768C93.4498 34.4187 92.5253 34.5916 91.5633 34.5916C90.6282 34.5916 89.6989 34.3487 88.7801 33.8699C87.8614 33.3901 87.0599 32.7015 86.3698 31.8012L86.3679 31.8041ZM110.109 23.6526C110.094 24.0751 109.956 24.5335 109.688 25.0269C109.428 25.5151 109.025 25.9108 108.535 26.1603C109.469 26.6391 110.094 27.2792 110.409 28.0785C110.726 28.8778 110.819 29.648 110.69 30.3881C110.273 33.0473 108.462 34.3759 105.256 34.3759H99.0238V18.948H105.148C106.643 18.948 107.855 19.3734 108.781 20.2223C109.709 21.0711 110.153 22.2152 110.109 23.6546V23.6526ZM102.906 24.9832H105.149C105.739 24.9832 106.16 24.753 106.413 24.2965C106.663 23.8381 106.667 23.3817 106.423 22.9232C106.181 22.4638 105.756 22.2366 105.151 22.2366H102.908V24.9832H102.906ZM102.906 30.9543H105.149C105.883 30.9543 106.397 30.6901 106.693 30.1579C106.987 29.6296 106.985 29.1012 106.683 28.5787C106.379 28.0542 105.868 27.7939 105.15 27.7939H102.908V30.9543H102.906ZM119.447 18.947L124.902 34.3759H120.762L119.77 31.2816H115.695L114.745 34.3769H110.603L115.931 18.949H119.447V18.947ZM116.557 27.8143H118.844L117.787 23.3049H117.678L116.558 27.8153L116.557 27.8143ZM124.708 31.8041L127.145 29.4926C127.433 29.8568 127.794 30.1628 128.233 30.4085C128.674 30.6542 129.108 30.8164 129.54 30.8873C129.971 30.9601 130.381 30.9776 130.768 30.9407C131.156 30.9048 131.479 30.7853 131.738 30.5814C131.996 30.3793 132.132 30.1152 132.148 29.7966C132.162 29.3887 131.909 29.0565 131.392 28.7943C130.876 28.5321 130.258 28.3504 129.537 28.2504C128.202 28.0309 127.083 27.5055 126.185 26.6693C125.287 25.834 124.837 24.7268 124.837 23.3457C124.837 21.9083 125.379 20.7788 126.464 19.9561C127.55 19.1354 128.847 18.7266 130.356 18.7266C132.499 18.7266 134.239 19.5472 135.577 21.1877L133.053 23.1495C132.562 22.6143 131.935 22.2259 131.24 22.0268C130.55 21.8306 129.95 21.8452 129.439 22.0705C128.929 22.2958 128.666 22.6999 128.65 23.2806C128.695 23.9469 129.371 24.4267 130.678 24.7181C131.297 24.8327 131.836 24.957 132.295 25.0871C132.756 25.2192 133.237 25.4173 133.739 25.6873C134.242 25.9564 134.648 26.2681 134.96 26.6236C135.267 26.98 135.517 27.4453 135.703 28.0193C135.889 28.5923 135.967 29.243 135.94 29.9685C135.904 30.8962 135.549 31.7821 134.937 32.4743C134.312 33.2027 133.556 33.7369 132.672 34.0768C131.788 34.4187 130.864 34.5916 129.902 34.5916C128.967 34.5916 128.037 34.3487 127.119 33.8699C126.201 33.3901 125.4 32.7015 124.709 31.8012L124.708 31.8041ZM141.272 22.6066V25.0055H147.461V28.3825H141.272V30.6921H148.001V34.3759H137.368V18.948H147.999V22.6095L141.269 22.6076L141.272 22.6066Z" fill="black"/>
</g>
<defs>
<clipPath id="clip0_1915_8186">
<rect width="148" height="40" fill="white" transform="translate(0 6.99902)"/>
</clipPath>
</defs>
</svg>
