<svg width="264" height="94" viewBox="0 0 264 94" fill="none" xmlns="http://www.w3.org/2000/svg">
<path d="M195.613 32.9991L203.66 26.7676H176.719V64.0958H203.66V57.8642H184.416V48.3336H200.861V42.1021H184.416V32.9991H195.613Z" fill="#21A038"/>
<path d="M156.365 41.3079H147.034V32.9991H161.963L170.01 26.7676H139.337V64.0958H155.373C164.354 64.0958 169.544 59.8192 169.544 52.3658C169.544 45.2179 164.879 41.3079 156.365 41.3079ZM155.082 57.8642H147.034V47.5394H155.082C159.98 47.5394 162.254 49.25 162.254 52.7324C162.254 56.2147 159.805 57.8642 155.082 57.8642Z" fill="#21A038"/>
<path d="M225.467 26.7676H210.83V64.0958H218.527V53.5266H225.525C234.855 53.5266 240.687 48.3947 240.687 40.1471C240.687 31.8994 234.855 26.7676 225.467 26.7676ZM225.292 47.295H218.469V32.9991H225.292C230.248 32.9991 232.931 35.5651 232.931 40.1471C232.931 44.7291 230.248 47.295 225.292 47.295Z" fill="#21A038"/>
<path d="M126.161 56.0324C124.12 57.1932 121.846 57.8041 119.513 57.8041C112.574 57.8041 107.559 52.6111 107.559 45.4632C107.559 38.3152 112.574 33.1223 119.513 33.1223C122.021 33.0612 124.47 33.9165 126.511 35.4438L132.051 31.1673L131.701 30.8007C128.494 27.8071 124.178 26.2798 119.28 26.2798C113.973 26.2798 109.133 28.1737 105.634 31.5949C102.136 35.1384 100.153 40.0869 100.27 45.2188C100.211 50.4118 102.136 55.4214 105.634 59.0871C109.308 62.6916 114.207 64.7077 119.222 64.5855C124.762 64.5855 129.602 62.5694 132.867 58.9038L127.911 55.0549L126.161 56.0324Z" fill="#21A038"/>
<path d="M76.1825 26.5239C77.582 28.4178 78.7483 30.495 79.7396 32.6944L52.7984 53.5273L41.4854 46.0739V37.1542L52.74 44.5465L76.1825 26.5239Z" fill="#21A038"/>
<path d="M29.9991 45.4625C29.9991 45.0348 29.9991 44.6682 30.0574 44.2406L23.2346 43.874C23.2346 44.3628 23.1763 44.9126 23.1763 45.4014C23.1763 53.9545 26.5002 61.7134 31.8651 67.334L36.7052 62.2632C32.5649 57.9866 29.9991 52.0606 29.9991 45.4625Z" fill="url(#paint0_linear_1058_9390)"/>
<path d="M52.7399 21.6367C53.1481 21.6367 53.4979 21.6367 53.9061 21.6978L54.256 14.5499C53.7895 14.5499 53.2647 14.4888 52.7982 14.4888C44.6341 14.4888 37.2282 17.9711 31.8633 23.5917L36.7034 28.6625C40.7854 24.3248 46.5002 21.6367 52.7399 21.6367Z" fill="url(#paint1_linear_1058_9390)"/>
<path d="M52.7447 69.2894C52.3365 69.2894 51.9866 69.2894 51.5784 69.2284L51.2285 76.3763C51.695 76.3763 52.2199 76.4374 52.6864 76.4374C60.8504 76.4374 68.2563 72.9551 73.6213 67.3344L68.7812 62.2637C64.6991 66.6624 59.0426 69.2894 52.7447 69.2894Z" fill="url(#paint2_linear_1058_9390)"/>
<path d="M65.5714 25.7902L71.3445 21.3303C66.2711 17.0538 59.7982 14.4268 52.7422 14.4268V21.5747C57.524 21.6358 61.9559 23.1631 65.5714 25.7902Z" fill="url(#paint3_linear_1058_9390)"/>
<path d="M82.3659 45.4628C82.3659 43.5689 82.1909 41.7361 81.8994 39.9033L75.5431 44.8519C75.5431 45.0352 75.5431 45.2796 75.5431 45.4628C75.5431 52.4886 72.6274 58.7812 68.0205 63.1189L72.6274 68.434C78.5754 62.8134 82.3659 54.5658 82.3659 45.4628Z" fill="#21A038"/>
<path d="M52.7436 69.2888C46.0375 69.2888 40.0311 66.2341 35.8907 61.4077L30.8174 66.2341C36.2406 72.5268 44.0548 76.4367 52.7436 76.4367V69.2888Z" fill="url(#paint4_linear_1058_9390)"/>
<path d="M37.5216 27.8059L32.9148 22.4907C26.9084 28.1724 23.1763 36.359 23.1763 45.4619H29.9991C29.9991 38.4973 32.9148 32.1435 37.5216 27.8059Z" fill="url(#paint5_linear_1058_9390)"/>
<defs>
<linearGradient id="paint0_linear_1058_9390" x1="31.1371" y1="66.4643" x2="23.6704" y2="45.5462" gradientUnits="userSpaceOnUse">
<stop offset="0.1444" stop-color="#F2E913"/>
<stop offset="0.3037" stop-color="#E7E518"/>
<stop offset="0.5823" stop-color="#CADB26"/>
<stop offset="0.891" stop-color="#A3CD39"/>
</linearGradient>
<linearGradient id="paint1_linear_1058_9390" x1="33.8081" y1="22.7851" x2="51.6658" y2="16.1895" gradientUnits="userSpaceOnUse">
<stop offset="0.0592" stop-color="#0FA8E0"/>
<stop offset="0.5385" stop-color="#0099F9"/>
<stop offset="0.9234" stop-color="#0291EB"/>
</linearGradient>
<linearGradient id="paint2_linear_1058_9390" x1="50.8279" y1="70.3585" x2="71.9902" y2="65.7229" gradientUnits="userSpaceOnUse">
<stop offset="0.1226" stop-color="#A3CD39"/>
<stop offset="0.2846" stop-color="#86C339"/>
<stop offset="0.8693" stop-color="#21A038"/>
</linearGradient>
<linearGradient id="paint3_linear_1058_9390" x1="51.3404" y1="18.9795" x2="68.987" y2="24.2565" gradientUnits="userSpaceOnUse">
<stop offset="0.0566" stop-color="#0291EB"/>
<stop offset="0.79" stop-color="#0C8ACB"/>
</linearGradient>
<linearGradient id="paint4_linear_1058_9390" x1="32.5522" y1="67.3666" x2="51.558" y2="74.2491" gradientUnits="userSpaceOnUse">
<stop offset="0.1324" stop-color="#F2E913"/>
<stop offset="0.2977" stop-color="#EBE716"/>
<stop offset="0.5306" stop-color="#D9E01F"/>
<stop offset="0.8023" stop-color="#BBD62D"/>
<stop offset="0.9829" stop-color="#A3CD39"/>
</linearGradient>
<linearGradient id="paint5_linear_1058_9390" x1="28.404" y1="46.3253" x2="36.4622" y2="26.0088" gradientUnits="userSpaceOnUse">
<stop offset="0.0698" stop-color="#A3CD39"/>
<stop offset="0.2599" stop-color="#81C55F"/>
<stop offset="0.9216" stop-color="#0FA8E0"/>
</linearGradient>
</defs>
</svg>
