<svg width="264" height="94" viewBox="0 0 264 94" fill="none" xmlns="http://www.w3.org/2000/svg">
<g clip-path="url(#clip0_1058_9389)">
<path fill-rule="evenodd" clip-rule="evenodd" d="M37.8113 7.08057L34.1062 17.443H85.4512L89.1563 7.08057H37.8113ZM32.2525 22.6218L28.5473 32.9818H79.8923L83.5975 22.6218H32.2525ZM26.7051 38.163L23 48.5231H74.345L78.0478 38.163H26.7051Z" fill="#00AAFF"/>
<mask id="mask0_1058_9389" style="mask-type:alpha" maskUnits="userSpaceOnUse" x="100" y="22" width="141" height="65">
<path d="M100.035 86.297H240.586V22.8208H100.035V86.297Z" fill="white"/>
</mask>
<g mask="url(#mask0_1058_9389)">
<path fill-rule="evenodd" clip-rule="evenodd" d="M132.157 52.4717V52.6904C134.504 53.5697 136.745 55.1074 137.919 56.0949C141.548 59.1703 143.149 63.2331 143.149 68.5045C143.149 77.1828 138.666 83.4417 131.302 85.4191C129.061 86.0774 126.715 86.2984 122.337 86.2984H100.035V22.8208H119.778C123.833 22.8208 126.607 23.0394 129.061 23.6978C136.213 25.6751 140.908 30.7279 140.908 38.7431C140.908 43.027 139.414 46.6525 136.96 49.0672C135.893 50.1652 134.398 51.4842 132.157 52.4717ZM112.414 59.1703V75.8638H120.952C123.511 75.8638 125.86 75.6452 127.569 73.997C129.276 72.3487 130.023 70.2633 130.023 67.517C130.023 65.4316 129.488 63.4542 128.421 62.027C126.607 59.7205 124.366 59.1703 120.525 59.1703H112.414ZM112.306 48.1878H119.243C121.377 48.1878 122.444 48.1878 123.511 47.8587C126.395 46.9793 128.209 44.346 128.209 40.7204C128.209 36.4389 126.287 34.5697 123.511 33.6927C122.337 33.3636 121.165 33.253 118.816 33.253H112.306V48.1878ZM161.718 86.2984V33.4717H143.896V22.8208H193.416L189.895 33.4717H174.097V86.2984H161.718ZM197.256 86.2984V22.8208H237.385L233.864 33.4717H209.53V47.5295H219.456C227.459 47.5295 231.622 49.5069 234.504 52.0321C236.745 54.0094 240.586 58.4014 240.586 67.0798C240.586 75.6452 236.638 80.3663 233.329 82.7834C229.488 85.5272 225.433 86.2984 217.214 86.2984H197.256ZM209.53 75.6452H218.816C222.337 75.6452 224.471 74.7658 225.965 72.7884C226.712 71.8009 227.779 70.0422 227.779 66.7482C227.779 63.4542 226.712 61.1477 224.578 59.4994C223.299 58.512 221.59 57.9642 218.709 57.9642H209.53V75.6452Z" fill="#002882"/>
</g>
</g>
<defs>
<clipPath id="clip0_1058_9389">
<rect width="218" height="79.839" fill="white" transform="translate(23 7.08057)"/>
</clipPath>
</defs>
</svg>
