<svg width="24" height="24" viewBox="0 0 24 24" fill="none" xmlns="http://www.w3.org/2000/svg">
<path d="M8.00078 12H9.60078V13.6H8.00078V12ZM19.2008 7.2V18.4C19.2008 18.8243 19.0322 19.2313 18.7322 19.5314C18.4321 19.8314 18.0251 20 17.6008 20H6.40078C5.97643 20 5.56947 19.8314 5.26941 19.5314C4.96935 19.2313 4.80078 18.8243 4.80078 18.4V7.2C4.80078 6.77565 4.96935 6.36869 5.26941 6.06863C5.56947 5.76857 5.97643 5.6 6.40078 5.6H7.20078V4H8.80078V5.6H15.2008V4H16.8008V5.6H17.6008C18.0251 5.6 18.4321 5.76857 18.7322 6.06863C19.0322 6.36869 19.2008 6.77565 19.2008 7.2ZM6.40078 8.8H17.6008V7.2H6.40078V8.8ZM17.6008 18.4V10.4H6.40078V18.4H17.6008ZM14.4008 13.6V12H16.0008V13.6H14.4008ZM11.2008 13.6V12H12.8008V13.6H11.2008ZM8.00078 15.2H9.60078V16.8H8.00078V15.2ZM14.4008 16.8V15.2H16.0008V16.8H14.4008ZM11.2008 16.8V15.2H12.8008V16.8H11.2008Z" fill="#2AA84A"/>
</svg>
