<svg width="21" height="21" viewBox="0 0 21 21" fill="none" xmlns="http://www.w3.org/2000/svg">
<path d="M12.9992 20.9992H2.99922C2.46329 21.0178 1.94369 20.8131 1.5645 20.4339C1.18532 20.0547 0.980591 19.5351 0.999215 18.9992V8.99922C0.980591 8.46329 1.18532 7.94369 1.5645 7.5645C1.94369 7.18532 2.46329 6.98059 2.99922 6.99922H6.99922V2.99922C6.98059 2.46329 7.18532 1.94369 7.5645 1.5645C7.94369 1.18532 8.46329 0.980591 8.99922 0.999215H18.9992C19.5351 0.980591 20.0547 1.18532 20.4339 1.5645C20.8131 1.94369 21.0178 2.46329 20.9992 2.99922V12.9992C21.0175 13.5351 20.8127 14.0545 20.4336 14.4336C20.0545 14.8127 19.5351 15.0175 18.9992 14.9992H14.9992V18.9992C15.0175 19.5351 14.8127 20.0545 14.4336 20.4336C14.0545 20.8127 13.5351 21.0175 12.9992 20.9992ZM2.99922 8.99922V18.9992H12.9992V14.9992H8.99922C8.46337 15.0175 7.94395 14.8127 7.56483 14.4336C7.18572 14.0545 6.98089 13.5351 6.99922 12.9992V8.99922H2.99922ZM8.99922 2.99922V12.9992H18.9992V2.99922H8.99922Z" fill="#525252"/>
</svg>
