<svg width="24" height="24" viewBox="-1 0 26 24" fill="none" xmlns="http://www.w3.org/2000/svg">
<path d="M0 12C0 5.37258 5.37258 0 12 0V0C18.6274 0 24 5.37258 24 12V12C24 18.6274 18.6274 24 12 24V24C5.37258 24 0 18.6274 0 12V12Z" fill="white"/>
<path d="M4 12L9 14.8868L9 9.11325L4 12ZM20 11.5L8.5 11.5L8.5 12.5L20 12.5L20 11.5Z" fill="#2AA84A"/>
<path d="M12 23.7C5.53827 23.7 0.3 18.4617 0.3 12H-0.3C-0.3 18.7931 5.2069 24.3 12 24.3V23.7ZM23.7 12C23.7 18.4617 18.4617 23.7 12 23.7V24.3C18.7931 24.3 24.3 18.7931 24.3 12H23.7ZM12 0.3C18.4617 0.3 23.7 5.53827 23.7 12H24.3C24.3 5.2069 18.7931 -0.3 12 -0.3V0.3ZM12 -0.3C5.2069 -0.3 -0.3 5.2069 -0.3 12H0.3C0.3 5.53827 5.53827 0.3 12 0.3V-0.3Z" fill="#2AA84A"/>
</svg>
