<svg width="24" height="24" viewBox="0 0 24 24" fill="none" xmlns="http://www.w3.org/2000/svg">
<path d="M9.6582 10.7643C9.6582 9.47115 10.7065 8.42285 11.9996 8.42285C13.2927 8.42285 14.3411 9.47115 14.3411 10.7643C14.3411 12.0574 13.2927 13.1057 11.9996 13.1057C10.7065 13.1057 9.6582 12.0574 9.6582 10.7643Z" fill="#2AA84A"/>
<path fill-rule="evenodd" clip-rule="evenodd" d="M11.8308 4C8.49834 4 5.72294 6.55604 5.44917 9.87728C5.302 11.6627 5.85351 13.4356 6.98754 14.8225L10.7285 19.3975C11.3853 20.2008 12.6135 20.2008 13.2704 19.3975L17.0112 14.8225C18.1453 13.4356 18.6968 11.6627 18.5496 9.87728C18.2759 6.55604 15.5004 4 12.168 4H11.8308ZM11.9994 6.86175C9.84416 6.86175 8.09701 8.60891 8.09701 10.7641C8.09701 12.9194 9.84416 14.6665 11.9994 14.6665C14.1547 14.6665 15.9018 12.9194 15.9018 10.7641C15.9018 8.60891 14.1547 6.86175 11.9994 6.86175Z" fill="#2AA84A"/>
</svg>
