<svg width="24" height="24" viewBox="0 0 24 24" fill="none" xmlns="http://www.w3.org/2000/svg">
<path d="M12 18.4111C10.5148 18.4111 9.09041 17.8252 8.0402 16.7823C6.99 15.7394 6.4 14.3249 6.4 12.85C6.4 11.3752 6.99 9.96068 8.0402 8.91778C9.09041 7.87487 10.5148 7.28898 12 7.28898C13.4852 7.28898 14.9096 7.87487 15.9598 8.91778C17.01 9.96068 17.6 11.3752 17.6 12.85C17.6 14.3249 17.01 15.7394 15.9598 16.7823C14.9096 17.8252 13.4852 18.4111 12 18.4111ZM12 5.7001C10.0904 5.7001 8.25909 6.4534 6.90883 7.79427C5.55857 9.13515 4.8 10.9538 4.8 12.85C4.8 14.7463 5.55857 16.565 6.90883 17.9058C8.25909 19.2467 10.0904 20 12 20C13.9096 20 15.7409 19.2467 17.0912 17.9058C18.4414 16.565 19.2 14.7463 19.2 12.85C19.2 10.9538 18.4414 9.13515 17.0912 7.79427C15.7409 6.4534 13.9096 5.7001 12 5.7001ZM12.4 8.87786H11.2V13.6445L15 15.9086L15.6 14.9315L12.4 13.0487V8.87786ZM8.704 5.21549L7.68 4L4 7.05859L5.032 8.27408L8.704 5.21549ZM20 7.06653L16.32 4L15.288 5.21549L18.968 8.28203L20 7.06653Z" fill="#2AA84A"/>
</svg>
